<svg id="Layer_1" data-name="Layer 1" xmlns="http://www.w3.org/2000/svg" xmlns:xlink="http://www.w3.org/1999/xlink" viewBox="0 0 139.98 222.09"><defs><style>.cls-1{fill:none;}.cls-2{isolation:isolate;}.cls-3{fill:#b2b2b2;}.cls-4{clip-path:url(#clip-path);}.cls-5{fill:#9c9c9c;}.cls-6{fill:#a1a1a1;}.cls-7{fill:#a6a6a6;}.cls-8{fill:#818181;}.cls-9{clip-path:url(#clip-path-2);}.cls-10{fill:#838383;}.cls-11{clip-path:url(#clip-path-3);}.cls-12{clip-path:url(#clip-path-4);}.cls-13{clip-path:url(#clip-path-5);}.cls-14{clip-path:url(#clip-path-6);}.cls-15{fill:#979797;}.cls-16{fill:#929292;}.cls-17{fill:#8d8d8d;}.cls-18{fill:#888;}.cls-19{clip-path:url(#clip-path-7);}.cls-20{fill:#7e7e7e;}.cls-21{clip-path:url(#clip-path-8);}.cls-22{fill:#dcdcdc;}.cls-23{clip-path:url(#clip-path-9);}.cls-24{clip-path:url(#clip-path-10);}.cls-25{clip-path:url(#clip-path-11);}.cls-26{clip-path:url(#clip-path-12);}.cls-27{clip-path:url(#clip-path-13);}.cls-28{clip-path:url(#clip-path-14);}.cls-29{fill:#a8a8a8;}.cls-30{fill:#a3a3a3;}.cls-31{fill:#9e9e9e;}.cls-32{clip-path:url(#clip-path-15);}.cls-33{clip-path:url(#clip-path-16);}.cls-34{fill:#858585;}.cls-35{fill:#8a8a8a;}.cls-36{fill:#8f8f8f;}.cls-37{fill:#949494;}.cls-38{fill:#999;}.cls-39{clip-path:url(#clip-path-17);}.cls-40{clip-path:url(#clip-path-18);}.cls-41{clip-path:url(#clip-path-19);}.cls-42{clip-path:url(#clip-path-20);}.cls-43{clip-path:url(#clip-path-21);}.cls-44{clip-path:url(#clip-path-22);}.cls-45{clip-path:url(#clip-path-23);}.cls-46{clip-path:url(#clip-path-24);}.cls-47{clip-path:url(#clip-path-25);}.cls-48{clip-path:url(#clip-path-26);}.cls-49{fill:#b0b0b0;}.cls-50{clip-path:url(#clip-path-27);}.cls-51{clip-path:url(#clip-path-28);}.cls-52{clip-path:url(#clip-path-29);}.cls-53{clip-path:url(#clip-path-30);}.cls-54{clip-path:url(#clip-path-31);}.cls-55{clip-path:url(#clip-path-32);}.cls-56{fill:#dfdfdf;}.cls-57{clip-path:url(#clip-path-33);}.cls-58{clip-path:url(#clip-path-34);}.cls-59{fill:#828282;}.cls-60{clip-path:url(#clip-path-35);}.cls-61{clip-path:url(#clip-path-36);}.cls-62{clip-path:url(#clip-path-37);}.cls-63{clip-path:url(#clip-path-38);}.cls-64{clip-path:url(#clip-path-39);}.cls-65{clip-path:url(#clip-path-40);}.cls-66{clip-path:url(#clip-path-41);}.cls-67{clip-path:url(#clip-path-42);}.cls-68{clip-path:url(#clip-path-43);}.cls-69{clip-path:url(#clip-path-44);}.cls-70{clip-path:url(#clip-path-45);}.cls-71{clip-path:url(#clip-path-46);}.cls-72{clip-path:url(#clip-path-47);}.cls-73{clip-path:url(#clip-path-48);}.cls-74{clip-path:url(#clip-path-49);}.cls-75{clip-path:url(#clip-path-50);}.cls-76{clip-path:url(#clip-path-51);}.cls-77{fill:#acacac;}.cls-78{clip-path:url(#clip-path-52);}.cls-79{clip-path:url(#clip-path-53);}.cls-80{clip-path:url(#clip-path-54);}.cls-81{clip-path:url(#clip-path-55);}.cls-82{clip-path:url(#clip-path-56);}.cls-83{clip-path:url(#clip-path-57);}.cls-84{clip-path:url(#clip-path-58);}.cls-85{clip-path:url(#clip-path-59);}.cls-86{clip-path:url(#clip-path-60);}.cls-87{clip-path:url(#clip-path-61);}.cls-88{clip-path:url(#clip-path-62);}.cls-89{clip-path:url(#clip-path-63);}.cls-90{clip-path:url(#clip-path-64);}.cls-91{clip-path:url(#clip-path-65);}.cls-92{clip-path:url(#clip-path-66);}.cls-93{clip-path:url(#clip-path-67);}.cls-94{clip-path:url(#clip-path-68);}.cls-95{clip-path:url(#clip-path-69);}.cls-96{clip-path:url(#clip-path-70);}.cls-97{clip-path:url(#clip-path-71);}.cls-98{clip-path:url(#clip-path-72);}.cls-99{clip-path:url(#clip-path-73);}.cls-100{clip-path:url(#clip-path-74);}.cls-101{clip-path:url(#clip-path-75);}.cls-102{clip-path:url(#clip-path-76);}.cls-103{clip-path:url(#clip-path-77);}.cls-104{clip-path:url(#clip-path-78);}.cls-105{clip-path:url(#clip-path-79);}</style><clipPath id="clip-path" transform="translate(-345.92 -238.27)"><path class="cls-1" d="M444.18,437.66l-4.55-2.48a25.34,25.34,0,0,0,15.75,2.71l4.56,2.48A25.37,25.37,0,0,1,444.18,437.66Z"/></clipPath><clipPath id="clip-path-2" transform="translate(-345.92 -238.27)"><path class="cls-1" d="M479.66,357.12l-4.56-2.48a10.1,10.1,0,0,0-1.14-4.78l4.56,2.48A10.1,10.1,0,0,1,479.66,357.12Z"/></clipPath><clipPath id="clip-path-3" transform="translate(-345.92 -238.27)"><path class="cls-1" d="M445.22,392.91l-4.56-2.48a2.66,2.66,0,0,1-.89-.78l4.56,2.48A2.66,2.66,0,0,0,445.22,392.91Z"/></clipPath><clipPath id="clip-path-4" transform="translate(-345.92 -238.27)"><path class="cls-1" d="M439.56,443.23,435,440.75c-8.53-5.27-14-14.68-14.92-25.75l4.55,2.48C425.58,428.55,431,438,439.56,443.23Z"/></clipPath><clipPath id="clip-path-5" transform="translate(-345.92 -238.27)"><path class="cls-1" d="M403.23,437.43,398.67,435a2.72,2.72,0,0,0,1.71.29l4.56,2.48A2.72,2.72,0,0,1,403.23,437.43Z"/></clipPath><clipPath id="clip-path-6" transform="translate(-345.92 -238.27)"><path class="cls-1" d="M402.11,428.59l4.56,2.48a3,3,0,0,1,1.5,2.73,4,4,0,0,1-3.23,3.92l-4.56-2.48a4,4,0,0,0,3.23-3.92A3,3,0,0,0,402.11,428.59Z"/></clipPath><clipPath id="clip-path-7" transform="translate(-345.92 -238.27)"><path class="cls-1" d="M405.57,422.24l4.56,2.48a8.31,8.31,0,0,0-5.17-.89l-4.55-2.48A8.26,8.26,0,0,1,405.57,422.24Z"/></clipPath><clipPath id="clip-path-8" transform="translate(-345.92 -238.27)"><path class="cls-1" d="M399.77,443.79l-4.55-2.48a9.05,9.05,0,0,1-4.49-8.18c0-5.75,4.35-11,9.68-11.78l4.55,2.48c-5.32.75-9.66,6-9.67,11.78A9.06,9.06,0,0,0,399.77,443.79Z"/></clipPath><clipPath id="clip-path-9" transform="translate(-345.92 -238.27)"><path class="cls-1" d="M417.87,361.43l4.56,2.48a8.26,8.26,0,0,1,2.89,2.62l-4.55-2.48A8.38,8.38,0,0,0,417.87,361.43Z"/></clipPath><clipPath id="clip-path-10" transform="translate(-345.92 -238.27)"><path class="cls-1" d="M361.2,452.63l-4.56-2.48a8.36,8.36,0,0,0,5.17.89l4.56,2.48A8.35,8.35,0,0,1,361.2,452.63Z"/></clipPath><clipPath id="clip-path-11" transform="translate(-345.92 -238.27)"><path class="cls-1" d="M401.48,379.43,396.92,377a18.33,18.33,0,0,1,.23-6.75l4.55,2.48A18.54,18.54,0,0,0,401.48,379.43Z"/></clipPath><clipPath id="clip-path-12" transform="translate(-345.92 -238.27)"><path class="cls-1" d="M422,355.32l4.56,2.48a14,14,0,0,0-8.65-1.49,17.57,17.57,0,0,0-9.06,4.29,20.6,20.6,0,0,0-3.44,3.88L400.81,362a20.31,20.31,0,0,1,3.45-3.88,17.5,17.5,0,0,1,9.05-4.29A13.93,13.93,0,0,1,422,355.32Z"/></clipPath><clipPath id="clip-path-13" transform="translate(-345.92 -238.27)"><path class="cls-1" d="M393.72,386.73l-4.56-2.48a2.92,2.92,0,0,1-1.45-2.59,3.87,3.87,0,0,1,3.07-3.84l4.56,2.48a3.87,3.87,0,0,0-3.07,3.84A2.92,2.92,0,0,0,393.72,386.73Z"/></clipPath><clipPath id="clip-path-14" transform="translate(-345.92 -238.27)"><path class="cls-1" d="M427.76,299.69l4.55,2.48a1.08,1.08,0,0,0-.6-.11l-4.56-2.48A1.13,1.13,0,0,1,427.76,299.69Z"/></clipPath><clipPath id="clip-path-15" transform="translate(-345.92 -238.27)"><path class="cls-1" d="M431.69,302.06l-4.56-2.48h0l4.56,2.48Z"/></clipPath><clipPath id="clip-path-16" transform="translate(-345.92 -238.27)"><path class="cls-1" d="M431.07,304.47,426.51,302a1.09,1.09,0,0,1-.54-1,1.45,1.45,0,0,1,1.16-1.41l4.56,2.48a1.45,1.45,0,0,0-1.16,1.41A1.09,1.09,0,0,0,431.07,304.47Z"/></clipPath><clipPath id="clip-path-17" transform="translate(-345.92 -238.27)"><path class="cls-1" d="M394.94,373.3l-4.56-2.48c-1-.53-2.82-1.84-2.8-3.31l4.56,2.48C392.12,371.46,394,372.77,394.94,373.3Z"/></clipPath><clipPath id="clip-path-18" transform="translate(-345.92 -238.27)"><path class="cls-1" d="M358,458.74l-4.56-2.48c-4.5-2.45-7.48-7.46-7.47-13.64l4.56,2.48C350.47,451.28,353.45,456.29,358,458.74Z"/></clipPath><clipPath id="clip-path-19" transform="translate(-345.92 -238.27)"><path class="cls-1" d="M392.14,370l-4.56-2.48c0-1.91,3.12-4,3.28-4.11l4.56,2.48C395.26,366,392.17,368.08,392.14,370Z"/></clipPath><clipPath id="clip-path-20" transform="translate(-345.92 -238.27)"><path class="cls-1" d="M425.41,296.67l4.56,2.48a1.06,1.06,0,0,0-.62-.11l-4.56-2.48A1.06,1.06,0,0,1,425.41,296.67Z"/></clipPath><clipPath id="clip-path-21" transform="translate(-345.92 -238.27)"><path class="cls-1" d="M428.21,300.07l-4.56-2.48a1.35,1.35,0,0,1,1.14-1l4.56,2.48A1.35,1.35,0,0,0,428.21,300.07Z"/></clipPath><clipPath id="clip-path-22" transform="translate(-345.92 -238.27)"><path class="cls-1" d="M379.88,379.66l4.56,2.48a2.67,2.67,0,0,0-1.67-.28l-4.56-2.48A2.66,2.66,0,0,1,379.88,379.66Z"/></clipPath><clipPath id="clip-path-23" transform="translate(-345.92 -238.27)"><path class="cls-1" d="M381.09,388.3l-4.56-2.48a2.93,2.93,0,0,1-1.44-2.64,3.86,3.86,0,0,1,3.12-3.8l4.56,2.48a3.86,3.86,0,0,0-3.12,3.8A2.93,2.93,0,0,0,381.09,388.3Z"/></clipPath><clipPath id="clip-path-24" transform="translate(-345.92 -238.27)"><path class="cls-1" d="M423.41,302.66l-4.55-2.48a2.82,2.82,0,0,0,1.74.22h0a3.4,3.4,0,0,0,1.86-.93,4.27,4.27,0,0,0,1.15-1.87l4.56,2.48a4.2,4.2,0,0,1-1.16,1.87,3.34,3.34,0,0,1-1.85.93h0A2.86,2.86,0,0,1,423.41,302.66Z"/></clipPath><clipPath id="clip-path-25" transform="translate(-345.92 -238.27)"><path class="cls-1" d="M422.33,293.55l4.56,2.48a1.64,1.64,0,0,1,.5.41L422.83,294A1.64,1.64,0,0,0,422.33,293.55Z"/></clipPath><clipPath id="clip-path-26" transform="translate(-345.92 -238.27)"><path class="cls-1" d="M422.23,305l-4.55-2.48a4.75,4.75,0,0,1-1-.77l4.56,2.48A4.94,4.94,0,0,0,422.23,305Z"/></clipPath><clipPath id="clip-path-27" transform="translate(-345.92 -238.27)"><path class="cls-1" d="M444.94,246l4.56,2.48a9.21,9.21,0,0,1,4.55,8.32l-4.56-2.48A9.21,9.21,0,0,0,444.94,246Z"/></clipPath><clipPath id="clip-path-28" transform="translate(-345.92 -238.27)"><path class="cls-1" d="M421.2,304.21l-4.56-2.48a5.41,5.41,0,0,1-1.65-4.11l4.56,2.48A5.41,5.41,0,0,0,421.2,304.21Z"/></clipPath><clipPath id="clip-path-29" transform="translate(-345.92 -238.27)"><path class="cls-1" d="M379.75,365.23l4.56,2.48a2.49,2.49,0,0,0-1.51-.27L378.24,365A2.49,2.49,0,0,1,379.75,365.23Z"/></clipPath><clipPath id="clip-path-30" transform="translate(-345.92 -238.27)"><path class="cls-1" d="M416.06,306.54l-4.56-2.48a.83.83,0,0,1-.21-.16l4.56,2.48A.83.83,0,0,0,416.06,306.54Z"/></clipPath><clipPath id="clip-path-31" transform="translate(-345.92 -238.27)"><path class="cls-1" d="M423.55,291.2l4.56,2.48a4.68,4.68,0,0,0-2.89-.51h0a6.06,6.06,0,0,0-4,2.36l-4.56-2.48a6.08,6.08,0,0,1,4-2.36h0A4.67,4.67,0,0,1,423.55,291.2Z"/></clipPath><clipPath id="clip-path-32" transform="translate(-345.92 -238.27)"><path class="cls-1" d="M415.85,306.38l-4.56-2.48a1.08,1.08,0,0,1-.35-.86l4.56,2.48A1.08,1.08,0,0,0,415.85,306.38Z"/></clipPath><clipPath id="clip-path-33" transform="translate(-345.92 -238.27)"><path class="cls-1" d="M419.55,300.1,415,297.62a7.06,7.06,0,0,1,1.66-4.56l4.56,2.48A7.06,7.06,0,0,0,419.55,300.1Z"/></clipPath><clipPath id="clip-path-34" transform="translate(-345.92 -238.27)"><path class="cls-1" d="M381.27,374.86l-4.55-2.48a3.43,3.43,0,0,1-1.6-3.13c0-2.13,1.4-4,3.12-4.29l4.56,2.48c-1.72.25-3.12,2.16-3.13,4.29A3.48,3.48,0,0,0,381.27,374.86Z"/></clipPath><clipPath id="clip-path-35" transform="translate(-345.92 -238.27)"><path class="cls-1" d="M409.87,295.21l4.56,2.48a2.13,2.13,0,0,1,1.08,2L411,297.22a2.13,2.13,0,0,0-1.08-2Z"/></clipPath><clipPath id="clip-path-36" transform="translate(-345.92 -238.27)"><path class="cls-1" d="M409,307.53l-4.56-2.48a.83.83,0,0,1-.21-.16l4.56,2.48A.83.83,0,0,0,409,307.53Z"/></clipPath><clipPath id="clip-path-37" transform="translate(-345.92 -238.27)"><path class="cls-1" d="M408.82,307.37l-4.56-2.48a1.08,1.08,0,0,1-.35-.86l4.56,2.48A1.05,1.05,0,0,0,408.82,307.37Z"/></clipPath><clipPath id="clip-path-38" transform="translate(-345.92 -238.27)"><path class="cls-1" d="M411.08,292.78l4.56,2.48a3.85,3.85,0,0,0-2.44-.4l-4.55-2.48A3.83,3.83,0,0,1,411.08,292.78Z"/></clipPath><clipPath id="clip-path-39" transform="translate(-345.92 -238.27)"><path class="cls-1" d="M403.42,309.54l-4.56-2.48a3,3,0,0,0,.71-1.91l4.56,2.48A3,3,0,0,1,403.42,309.54Z"/></clipPath><clipPath id="clip-path-40" transform="translate(-345.92 -238.27)"><path class="cls-1" d="M409.87,296.84l-4.56-2.48a5.11,5.11,0,0,1,3.28-2h.06l4.55,2.48h-.05A5.11,5.11,0,0,0,409.87,296.84Z"/></clipPath><clipPath id="clip-path-41" transform="translate(-345.92 -238.27)"><path class="cls-1" d="M408.48,300.68l-4.56-2.48a5.93,5.93,0,0,1,1.39-3.84l4.56,2.48A5.93,5.93,0,0,0,408.48,300.68Z"/></clipPath><clipPath id="clip-path-42" transform="translate(-345.92 -238.27)"><path class="cls-1" d="M400.43,310.29l-4.55-2.48a2.24,2.24,0,0,0,1.36.22,2.59,2.59,0,0,0,1.62-1l4.56,2.48a2.59,2.59,0,0,1-1.62,1A2.29,2.29,0,0,1,400.43,310.29Z"/></clipPath><clipPath id="clip-path-43" transform="translate(-345.92 -238.27)"><path class="cls-1" d="M400.32,310.24l-4.56-2.48.12.05,4.55,2.48Z"/></clipPath><clipPath id="clip-path-44" transform="translate(-345.92 -238.27)"><path class="cls-1" d="M403.45,304.93l-4.56-2.48a3,3,0,0,0,.69-1.9l4.56,2.48A3,3,0,0,1,403.45,304.93Z"/></clipPath><clipPath id="clip-path-45" transform="translate(-345.92 -238.27)"><path class="cls-1" d="M401.81,305.9l-4.56-2.48a2.56,2.56,0,0,0,1.64-1l4.56,2.48A2.56,2.56,0,0,1,401.81,305.9Z"/></clipPath><clipPath id="clip-path-46" transform="translate(-345.92 -238.27)"><path class="cls-1" d="M394.51,306.46l4.56,2.48-.18-.07-4.56-2.48Z"/></clipPath><clipPath id="clip-path-47" transform="translate(-345.92 -238.27)"><path class="cls-1" d="M400.58,305.7,396,303.22a1.9,1.9,0,0,0,1.18.21h.05l4.56,2.48h-.05A1.89,1.89,0,0,1,400.58,305.7Z"/></clipPath><clipPath id="clip-path-48" transform="translate(-345.92 -238.27)"><path class="cls-1" d="M399,312.65l-4.56-2.48a3.91,3.91,0,0,1-1.66-1.75l4.55,2.48A4,4,0,0,0,399,312.65Z"/></clipPath><clipPath id="clip-path-49" transform="translate(-345.92 -238.27)"><path class="cls-1" d="M398.48,308.84l-4.56-2.48a1.12,1.12,0,0,1,.41,0l4.56,2.48A1.12,1.12,0,0,0,398.48,308.84Z"/></clipPath><clipPath id="clip-path-50" transform="translate(-345.92 -238.27)"><path class="cls-1" d="M401.41,293.58l4.55,2.48a1,1,0,0,0-.62-.1l-4.56-2.47A.94.94,0,0,1,401.41,293.58Z"/></clipPath><clipPath id="clip-path-51" transform="translate(-345.92 -238.27)"><path class="cls-1" d="M398.06,309l-4.56-2.48a1.6,1.6,0,0,1,.42-.14l4.56,2.48A1.48,1.48,0,0,0,398.06,309Z"/></clipPath><clipPath id="clip-path-52" transform="translate(-345.92 -238.27)"><path class="cls-1" d="M397.37,310.9l-4.55-2.48a1.19,1.19,0,0,1-.14-.56,1.24,1.24,0,0,1,.1-.5l4.56,2.48a1.24,1.24,0,0,0-.1.5A1.32,1.32,0,0,0,397.37,310.9Z"/></clipPath><clipPath id="clip-path-53" transform="translate(-345.92 -238.27)"><path class="cls-1" d="M397.34,309.84l-4.56-2.48a1.35,1.35,0,0,1,.68-.83L398,309A1.35,1.35,0,0,0,397.34,309.84Z"/></clipPath><clipPath id="clip-path-54" transform="translate(-345.92 -238.27)"><path class="cls-1" d="M404.5,296.47,399.94,294a1.28,1.28,0,0,1,.84-.5l4.56,2.47A1.34,1.34,0,0,0,404.5,296.47Z"/></clipPath><clipPath id="clip-path-55" transform="translate(-345.92 -238.27)"><path class="cls-1" d="M399.35,308.1l-4.56-2.48a3.75,3.75,0,0,1-.87-.64l4.56,2.48A3.75,3.75,0,0,0,399.35,308.1Z"/></clipPath><clipPath id="clip-path-56" transform="translate(-345.92 -238.27)"><path class="cls-1" d="M404.15,297.44,399.59,295a1.45,1.45,0,0,1,.35-1l4.56,2.48A1.45,1.45,0,0,0,404.15,297.44Z"/></clipPath><clipPath id="clip-path-57" transform="translate(-345.92 -238.27)"><path class="cls-1" d="M421.38,255.91l4.56,2.48a2.66,2.66,0,0,0-1.62-.3l-4.55-2.48A2.64,2.64,0,0,1,421.38,255.91Z"/></clipPath><clipPath id="clip-path-58" transform="translate(-345.92 -238.27)"><path class="cls-1" d="M398.48,307.46,393.92,305a4.53,4.53,0,0,1-1.38-3.44L397.1,304A4.5,4.5,0,0,0,398.48,307.46Z"/></clipPath><clipPath id="clip-path-59" transform="translate(-345.92 -238.27)"><path class="cls-1" d="M393.33,309.74l-4.56-2.48a.83.83,0,0,1-.21-.16l4.56,2.48A.83.83,0,0,0,393.33,309.74Z"/></clipPath><clipPath id="clip-path-60" transform="translate(-345.92 -238.27)"><path class="cls-1" d="M393.12,309.58l-4.56-2.48a1.08,1.08,0,0,1-.35-.86l4.56,2.48A1.06,1.06,0,0,0,393.12,309.58Z"/></clipPath><clipPath id="clip-path-61" transform="translate(-345.92 -238.27)"><path class="cls-1" d="M394.38,294.58l4.56,2.48a1.07,1.07,0,0,0-.64-.11l-4.56-2.48A1.07,1.07,0,0,1,394.38,294.58Z"/></clipPath><clipPath id="clip-path-62" transform="translate(-345.92 -238.27)"><path class="cls-1" d="M397.46,297.46,392.9,295a1.34,1.34,0,0,1,.84-.51L398.3,297A1.34,1.34,0,0,0,397.46,297.46Z"/></clipPath><clipPath id="clip-path-63" transform="translate(-345.92 -238.27)"><path class="cls-1" d="M397.11,298.43,392.55,296a1.56,1.56,0,0,1,.35-1l4.56,2.48A1.56,1.56,0,0,0,397.11,298.43Z"/></clipPath><clipPath id="clip-path-64" transform="translate(-345.92 -238.27)"><path class="cls-1" d="M387.15,298.4l4.56,2.48a2.13,2.13,0,0,1,.4.29,2.24,2.24,0,0,1,.67,1.69l-4.56-2.48a2.24,2.24,0,0,0-.67-1.69A2.13,2.13,0,0,0,387.15,298.4Z"/></clipPath><clipPath id="clip-path-65" transform="translate(-345.92 -238.27)"><path class="cls-1" d="M386.33,310.72l-4.56-2.48a1.46,1.46,0,0,1-.21-.16l4.56,2.48A1.06,1.06,0,0,0,386.33,310.72Z"/></clipPath><clipPath id="clip-path-66" transform="translate(-345.92 -238.27)"><path class="cls-1" d="M386.12,310.56l-4.56-2.48a1.11,1.11,0,0,1-.35-.86l4.56,2.48A1.08,1.08,0,0,0,386.12,310.56Z"/></clipPath><clipPath id="clip-path-67" transform="translate(-345.92 -238.27)"><path class="cls-1" d="M388.39,296l4.56,2.48a3.89,3.89,0,0,0-2.41-.42L386,295.56A3.89,3.89,0,0,1,388.39,296Z"/></clipPath><clipPath id="clip-path-68" transform="translate(-345.92 -238.27)"><path class="cls-1" d="M387,300.23l-4.56-2.48a4.74,4.74,0,0,1,3.5-2.18H386l4.56,2.48h-.06A4.74,4.74,0,0,0,387,300.23Z"/></clipPath><clipPath id="clip-path-69" transform="translate(-345.92 -238.27)"><path class="cls-1" d="M385.78,303.84l-4.56-2.48a2.28,2.28,0,0,0-.66-1.69l4.55,2.48A2.25,2.25,0,0,1,385.78,303.84Z"/></clipPath><clipPath id="clip-path-70" transform="translate(-345.92 -238.27)"><path class="cls-1" d="M380.15,299.37l4.55,2.48a1.73,1.73,0,0,1,.41.3l-4.55-2.48A2.26,2.26,0,0,0,380.15,299.37Z"/></clipPath><clipPath id="clip-path-71" transform="translate(-345.92 -238.27)"><path class="cls-1" d="M379.34,311.7l-4.56-2.48a.65.65,0,0,1-.21-.16l4.56,2.48A.65.65,0,0,0,379.34,311.7Z"/></clipPath><clipPath id="clip-path-72" transform="translate(-345.92 -238.27)"><path class="cls-1" d="M379.13,311.54l-4.56-2.48a1.07,1.07,0,0,1-.34-.86l4.56,2.48A1.07,1.07,0,0,0,379.13,311.54Z"/></clipPath><clipPath id="clip-path-73" transform="translate(-345.92 -238.27)"><path class="cls-1" d="M381.44,296.9l4.56,2.48a4,4,0,0,0-2.51-.35h-.05a5.18,5.18,0,0,0-3.27,2l-4.55-2.48a5.14,5.14,0,0,1,3.26-2h.06A4,4,0,0,1,381.44,296.9Z"/></clipPath><clipPath id="clip-path-74" transform="translate(-345.92 -238.27)"><path class="cls-1" d="M378.8,304.82l-4.56-2.48a5.9,5.9,0,0,1,1.38-3.81l4.55,2.48A5.94,5.94,0,0,0,378.8,304.82Z"/></clipPath><clipPath id="clip-path-75" transform="translate(-345.92 -238.27)"><path class="cls-1" d="M400.69,267.62l-4.56-2.48a2.9,2.9,0,0,1-1.44-2.69,3.85,3.85,0,0,1,3.12-3.75l4.56,2.48a3.85,3.85,0,0,0-3.12,3.75A2.91,2.91,0,0,0,400.69,267.62Z"/></clipPath><clipPath id="clip-path-76" transform="translate(-345.92 -238.27)"><path class="cls-1" d="M382.76,261.12l4.56,2.48a2.64,2.64,0,0,0-1.66-.28l-4.56-2.48A2.64,2.64,0,0,1,382.76,261.12Z"/></clipPath><clipPath id="clip-path-77" transform="translate(-345.92 -238.27)"><path class="cls-1" d="M384,269.76l-4.56-2.48a2.92,2.92,0,0,1-1.44-2.64,3.88,3.88,0,0,1,3.12-3.8l4.56,2.48a3.87,3.87,0,0,0-3.12,3.8A2.9,2.9,0,0,0,384,269.76Z"/></clipPath><clipPath id="clip-path-78" transform="translate(-345.92 -238.27)"><path class="cls-1" d="M448.24,239.9l4.56,2.48a13.83,13.83,0,0,0-8.59-1.48l-4.56-2.48A13.81,13.81,0,0,1,448.24,239.9Z"/></clipPath><clipPath id="clip-path-79" transform="translate(-345.92 -238.27)"><path class="cls-1" d="M350.8,271.39l-4.56-2.48c0-9.59,7.24-18.37,16.13-19.63l4.56,2.48C358,253,350.82,261.8,350.8,271.39Z"/></clipPath></defs><g class="cls-2"><polygon class="cls-3" points="114.02 202.1 109.46 199.62 129.04 196.87 133.59 199.35 114.02 202.1"/><g class="cls-2"><g class="cls-4"><g class="cls-2"><path class="cls-5" d="M444.18,437.66l-4.55-2.48c.29.16.59.31.89.46l4.56,2.48-.9-.46" transform="translate(-345.92 -238.27)"/><path class="cls-6" d="M445.08,438.12l-4.56-2.48a24.83,24.83,0,0,0,4.67,1.72l4.55,2.48a24.73,24.73,0,0,1-4.66-1.72" transform="translate(-345.92 -238.27)"/><path class="cls-7" d="M449.74,439.84l-4.55-2.48a26.13,26.13,0,0,0,10.19.53l4.56,2.48a26.2,26.2,0,0,1-10.2-.53" transform="translate(-345.92 -238.27)"/></g></g></g><polygon class="cls-8" points="133.59 199.35 129.04 196.87 129.19 116.37 133.74 118.85 133.59 199.35"/><g class="cls-2"><g class="cls-9"><g class="cls-2"><path class="cls-10" d="M479.66,357.12l-4.56-2.48a10.1,10.1,0,0,0-1.14-4.78l4.56,2.48a10.1,10.1,0,0,1,1.14,4.78" transform="translate(-345.92 -238.27)"/></g></g></g><polygon class="cls-3" points="103.08 147.93 98.52 145.45 103.33 144.77 107.89 147.25 103.08 147.93"/><g class="cls-2"><g class="cls-11"><g class="cls-2"><path class="cls-10" d="M445.22,392.91l-4.56-2.48a2.66,2.66,0,0,1-.89-.78l4.56,2.48a2.66,2.66,0,0,0,.89.78" transform="translate(-345.92 -238.27)"/></g></g></g><g class="cls-2"><g class="cls-12"><g class="cls-2"><path class="cls-10" d="M439.56,443.23,435,440.75c-8.53-5.27-14-14.68-14.92-25.75l4.55,2.48c.94,11.07,6.4,20.48,14.92,25.75" transform="translate(-345.92 -238.27)"/></g></g></g><g class="cls-2"><g class="cls-13"><g class="cls-2"><path class="cls-5" d="M403.23,437.43,398.67,435l.1.05,4.56,2.48-.1-.05" transform="translate(-345.92 -238.27)"/><path class="cls-6" d="M403.33,437.48,398.77,435a3,3,0,0,0,.5.19l4.56,2.48a3,3,0,0,1-.5-.19" transform="translate(-345.92 -238.27)"/><path class="cls-7" d="M403.83,437.67l-4.56-2.48a2.74,2.74,0,0,0,1.11.05l4.56,2.48a2.74,2.74,0,0,1-1.11-.05" transform="translate(-345.92 -238.27)"/></g></g></g><g class="cls-2"><g class="cls-14"><g class="cls-2"><path class="cls-7" d="M404.94,437.72l-4.56-2.48a3.09,3.09,0,0,0,.94-.28l4.56,2.48a3.09,3.09,0,0,1-.94.28" transform="translate(-345.92 -238.27)"/><path class="cls-6" d="M405.88,437.44,401.32,435a2.7,2.7,0,0,0,.52-.3l4.56,2.48a2.7,2.7,0,0,1-.52.3" transform="translate(-345.92 -238.27)"/><path class="cls-5" d="M406.4,437.14l-4.56-2.48a3,3,0,0,0,.39-.31l4.56,2.48a3,3,0,0,1-.39.31" transform="translate(-345.92 -238.27)"/><path class="cls-15" d="M406.79,436.83l-4.56-2.48a2.57,2.57,0,0,0,.33-.33l4.56,2.48a2.57,2.57,0,0,1-.33.33" transform="translate(-345.92 -238.27)"/><path class="cls-16" d="M407.12,436.5,402.56,434a3.37,3.37,0,0,0,.29-.37l4.56,2.48c-.09.13-.19.25-.29.37" transform="translate(-345.92 -238.27)"/><path class="cls-17" d="M407.41,436.13l-4.56-2.48a2.65,2.65,0,0,0,.26-.42l4.56,2.48a3.66,3.66,0,0,1-.26.42" transform="translate(-345.92 -238.27)"/><path class="cls-18" d="M407.67,435.71l-4.56-2.48a3.87,3.87,0,0,0,.25-.55l4.56,2.48a3.87,3.87,0,0,1-.25.55" transform="translate(-345.92 -238.27)"/><path class="cls-10" d="M407.92,435.16l-4.56-2.48a3.9,3.9,0,0,0,.25-1.36,3,3,0,0,0-1.5-2.73l4.56,2.48a3,3,0,0,1,1.5,2.73,4.15,4.15,0,0,1-.25,1.36" transform="translate(-345.92 -238.27)"/></g></g></g><g class="cls-2"><g class="cls-19"><g class="cls-2"><path class="cls-7" d="M405,423.83l-4.55-2.48a8.58,8.58,0,0,1,3.33.17L408.3,424a8.62,8.62,0,0,0-3.34-.17" transform="translate(-345.92 -238.27)"/><path class="cls-6" d="M408.3,424l-4.56-2.48a7.77,7.77,0,0,1,1.53.57l4.56,2.48a7.77,7.77,0,0,0-1.53-.57" transform="translate(-345.92 -238.27)"/><path class="cls-5" d="M409.83,424.57l-4.56-2.48.3.15,4.56,2.48-.3-.15" transform="translate(-345.92 -238.27)"/></g></g></g><polygon class="cls-20" points="132.6 114.07 128.04 111.59 109.68 77.13 114.24 79.61 132.6 114.07"/><g class="cls-2"><g class="cls-21"><g class="cls-2"><path class="cls-10" d="M399.77,443.79l-4.55-2.48a9.05,9.05,0,0,1-4.49-8.18,12.06,12.06,0,0,1,.75-4.1l4.56,2.48a12.06,12.06,0,0,0-.75,4.1,9.06,9.06,0,0,0,4.48,8.18" transform="translate(-345.92 -238.27)"/><path class="cls-18" d="M396,431.51,391.48,429a12.48,12.48,0,0,1,.73-1.63l4.56,2.48a12.48,12.48,0,0,0-.73,1.63" transform="translate(-345.92 -238.27)"/><path class="cls-17" d="M396.77,429.88l-4.56-2.48a12.8,12.8,0,0,1,.79-1.27l4.55,2.48a14.88,14.88,0,0,0-.78,1.27" transform="translate(-345.92 -238.27)"/><path class="cls-16" d="M397.55,428.61,393,426.13a11.82,11.82,0,0,1,.87-1.11l4.55,2.48a13.74,13.74,0,0,0-.87,1.11" transform="translate(-345.92 -238.27)"/><path class="cls-15" d="M398.42,427.5,393.87,425a13.09,13.09,0,0,1,1-1l4.56,2.48a13.21,13.21,0,0,0-1,1" transform="translate(-345.92 -238.27)"/><path class="cls-5" d="M399.41,426.51,394.85,424a10.38,10.38,0,0,1,1.17-.93l4.56,2.48a10.38,10.38,0,0,0-1.17.93" transform="translate(-345.92 -238.27)"/><path class="cls-6" d="M400.58,425.58,396,423.1a10.62,10.62,0,0,1,1.57-.9l4.56,2.48a10.62,10.62,0,0,0-1.57.9" transform="translate(-345.92 -238.27)"/><path class="cls-7" d="M402.15,424.68l-4.56-2.48a9.89,9.89,0,0,1,2.82-.85l4.55,2.48a9.82,9.82,0,0,0-2.81.85" transform="translate(-345.92 -238.27)"/></g></g></g><path class="cls-22" d="M405,423.83c5.34-.75,9.66,3.31,9.65,9.06s-4.35,11-9.68,11.79-9.65-3.32-9.64-9.07S399.64,424.58,405,423.83Zm0,13.89a4,4,0,0,0,3.23-3.92,2.85,2.85,0,0,0-3.22-3,4,4,0,0,0-3.22,3.93,2.84,2.84,0,0,0,3.21,3" transform="translate(-345.92 -238.27)"/><polygon class="cls-20" points="98.41 153.86 93.85 151.38 74.85 125.78 79.41 128.26 98.41 153.86"/><g class="cls-2"><g class="cls-23"><g class="cls-2"><path class="cls-10" d="M425.32,366.53l-4.55-2.48a8.38,8.38,0,0,0-2.9-2.62l4.56,2.48a8.26,8.26,0,0,1,2.89,2.62" transform="translate(-345.92 -238.27)"/></g></g></g><polygon class="cls-20" points="75.63 172.92 71.07 170.44 53.68 145.03 58.24 147.51 75.63 172.92"/><polygon class="cls-3" points="20.45 215.25 15.89 212.77 89.09 202.48 93.65 204.96 20.45 215.25"/><g class="cls-2"><g class="cls-24"><g class="cls-2"><path class="cls-5" d="M361.2,452.63l-4.56-2.48.29.15,4.56,2.48-.29-.15" transform="translate(-345.92 -238.27)"/><path class="cls-6" d="M361.49,452.78l-4.56-2.48a7.45,7.45,0,0,0,1.54.56l4.56,2.48a7.45,7.45,0,0,1-1.54-.56" transform="translate(-345.92 -238.27)"/><path class="cls-7" d="M363,453.34l-4.56-2.48a8.61,8.61,0,0,0,3.34.18l4.56,2.48a8.61,8.61,0,0,1-3.34-.18" transform="translate(-345.92 -238.27)"/></g></g></g><g class="cls-2"><g class="cls-25"><g class="cls-2"><path class="cls-10" d="M401.48,379.43,396.92,377a18.33,18.33,0,0,1,.23-6.75l4.55,2.48a18.54,18.54,0,0,0-.22,6.75" transform="translate(-345.92 -238.27)"/></g></g></g><g class="cls-2"><g class="cls-26"><g class="cls-2"><path class="cls-17" d="M405.37,364.48,400.81,362l.14-.2,4.56,2.48-.14.2" transform="translate(-345.92 -238.27)"/><path class="cls-16" d="M405.51,364.28,401,361.8a19.27,19.27,0,0,1,1.43-1.81l4.56,2.48a19.27,19.27,0,0,0-1.43,1.81" transform="translate(-345.92 -238.27)"/><path class="cls-15" d="M406.94,362.47,402.38,360a22.21,22.21,0,0,1,1.67-1.69l4.56,2.48a20.5,20.5,0,0,0-1.67,1.69" transform="translate(-345.92 -238.27)"/><path class="cls-5" d="M408.61,360.78l-4.56-2.48.21-.18a17,17,0,0,1,1.74-1.36l4.56,2.48a18.31,18.31,0,0,0-1.75,1.36l-.2.18" transform="translate(-345.92 -238.27)"/><path class="cls-6" d="M410.56,359.24,406,356.76a16.63,16.63,0,0,1,2.6-1.5l4.56,2.48a16.63,16.63,0,0,0-2.6,1.5" transform="translate(-345.92 -238.27)"/><path class="cls-7" d="M413.16,357.74l-4.56-2.48a16.25,16.25,0,0,1,4.71-1.43,14.3,14.3,0,0,1,5.62.3l4.56,2.48a14.3,14.3,0,0,0-5.62-.3,16.25,16.25,0,0,0-4.71,1.43" transform="translate(-345.92 -238.27)"/><path class="cls-6" d="M423.49,356.61l-4.56-2.48a13.44,13.44,0,0,1,2.55.94l4.56,2.48a13.69,13.69,0,0,0-2.55-.94" transform="translate(-345.92 -238.27)"/><path class="cls-5" d="M426,357.55l-4.56-2.48.48.25,4.56,2.48-.48-.25" transform="translate(-345.92 -238.27)"/></g></g></g><polygon class="cls-8" points="107.89 147.25 103.33 144.77 103.53 34.3 108.09 36.78 107.89 147.25"/><polygon class="cls-3" points="49.42 142.03 44.86 139.55 51.01 138.68 55.57 141.16 49.42 142.03"/><g class="cls-2"><g class="cls-27"><g class="cls-2"><path class="cls-10" d="M393.72,386.73l-4.56-2.48a2.92,2.92,0,0,1-1.45-2.59,4,4,0,0,1,.24-1.38l4.56,2.48a4,4,0,0,0-.24,1.38,2.92,2.92,0,0,0,1.45,2.59" transform="translate(-345.92 -238.27)"/><path class="cls-18" d="M392.51,382.76,388,380.28a4.9,4.9,0,0,1,.24-.52l4.56,2.48a4.9,4.9,0,0,0-.24.52" transform="translate(-345.92 -238.27)"/><path class="cls-17" d="M392.75,382.24l-4.56-2.48a3.45,3.45,0,0,1,.25-.41l4.56,2.48a3.45,3.45,0,0,0-.25.41" transform="translate(-345.92 -238.27)"/><path class="cls-16" d="M393,381.83l-4.56-2.48a3.44,3.44,0,0,1,.28-.36l4.56,2.48a3.44,3.44,0,0,0-.28.36" transform="translate(-345.92 -238.27)"/><path class="cls-15" d="M393.28,381.47,388.72,379c.1-.11.21-.22.32-.32l4.56,2.48-.32.32" transform="translate(-345.92 -238.27)"/><path class="cls-5" d="M393.6,381.15,389,378.67a3.57,3.57,0,0,1,.38-.3l4.56,2.48a2.79,2.79,0,0,0-.38.3" transform="translate(-345.92 -238.27)"/><path class="cls-6" d="M394,380.85l-4.56-2.48a3.6,3.6,0,0,1,.5-.29l4.56,2.48a3.1,3.1,0,0,0-.5.29" transform="translate(-345.92 -238.27)"/><path class="cls-7" d="M394.48,380.56l-4.56-2.48a2.86,2.86,0,0,1,.86-.26l4.56,2.48a2.86,2.86,0,0,0-.86.26" transform="translate(-345.92 -238.27)"/></g></g></g><g class="cls-2"><g class="cls-28"><g class="cls-2"><path class="cls-29" d="M431.71,302.06l-4.56-2.48a1.2,1.2,0,0,1,.38,0l4.56,2.48a1.2,1.2,0,0,0-.38,0" transform="translate(-345.92 -238.27)"/><path class="cls-30" d="M432.09,302.09l-4.56-2.48a.62.62,0,0,1,.19.07l4.56,2.48a.62.62,0,0,0-.19-.07" transform="translate(-345.92 -238.27)"/><path class="cls-31" d="M432.28,302.16l-4.56-2.48h0l4.55,2.48h0" transform="translate(-345.92 -238.27)"/></g></g></g><g class="cls-2"><g class="cls-32"><g class="cls-2"><path class="cls-29" d="M431.69,302.06l-4.56-2.48h0l4.56,2.48h0" transform="translate(-345.92 -238.27)"/></g></g></g><g class="cls-2"><g class="cls-33"><g class="cls-2"><path class="cls-34" d="M431.07,304.47,426.51,302a1.09,1.09,0,0,1-.54-1,1.36,1.36,0,0,1,.09-.48l4.56,2.48a1.32,1.32,0,0,0-.09.48,1.09,1.09,0,0,0,.54,1" transform="translate(-345.92 -238.27)"/><path class="cls-35" d="M430.62,303l-4.56-2.48a.82.82,0,0,1,.09-.19l4.56,2.48a.66.66,0,0,0-.09.19" transform="translate(-345.92 -238.27)"/><path class="cls-36" d="M430.71,302.8l-4.56-2.48.09-.16,4.56,2.48a.83.83,0,0,0-.09.16" transform="translate(-345.92 -238.27)"/><path class="cls-37" d="M430.8,302.64l-4.56-2.48.11-.13,4.56,2.48a.69.69,0,0,0-.11.13" transform="translate(-345.92 -238.27)"/><path class="cls-38" d="M430.91,302.51,426.35,300l.12-.13,4.56,2.48a.49.49,0,0,0-.12.13" transform="translate(-345.92 -238.27)"/><path class="cls-31" d="M431,302.38l-4.56-2.48.14-.11,4.56,2.48-.14.11" transform="translate(-345.92 -238.27)"/><path class="cls-30" d="M431.17,302.27l-4.56-2.48a1.18,1.18,0,0,1,.19-.11l4.56,2.48a1.18,1.18,0,0,0-.19.11" transform="translate(-345.92 -238.27)"/><path class="cls-29" d="M431.36,302.16l-4.56-2.48a1.26,1.26,0,0,1,.33-.1l4.56,2.48a1.26,1.26,0,0,0-.33.1" transform="translate(-345.92 -238.27)"/></g></g></g><polygon class="cls-3" points="49.5 127.61 44.95 125.13 54.9 123.73 59.45 126.21 49.5 127.61"/><polygon class="cls-8" points="108.11 29.1 103.55 26.62 103.57 16.05 108.13 18.53 108.11 29.1"/><g class="cls-2"><g class="cls-39"><g class="cls-2"><path class="cls-10" d="M394.94,373.3l-4.56-2.48c-1-.53-2.82-1.84-2.8-3.31l4.56,2.48c0,1.47,1.82,2.78,2.8,3.31" transform="translate(-345.92 -238.27)"/></g></g></g><g class="cls-2"><g class="cls-40"><g class="cls-2"><path class="cls-10" d="M358,458.74l-4.56-2.48c-4.5-2.45-7.48-7.46-7.47-13.64l4.56,2.48c0,6.18,3,11.19,7.47,13.64" transform="translate(-345.92 -238.27)"/></g></g></g><g class="cls-2"><g class="cls-41"><g class="cls-2"><path class="cls-10" d="M392.14,370l-4.56-2.48a2.06,2.06,0,0,1,.15-.72l4.55,2.48a2.3,2.3,0,0,0-.14.72" transform="translate(-345.92 -238.27)"/><path class="cls-18" d="M392.28,369.27l-4.55-2.48a4.17,4.17,0,0,1,.19-.44l4.56,2.48a4.28,4.28,0,0,0-.2.44" transform="translate(-345.92 -238.27)"/><path class="cls-17" d="M392.48,368.83l-4.56-2.48a4.66,4.66,0,0,1,.3-.47l4.56,2.48a4.66,4.66,0,0,0-.3.47" transform="translate(-345.92 -238.27)"/><path class="cls-16" d="M392.78,368.36l-4.56-2.48a5.39,5.39,0,0,1,.47-.6l4.56,2.48a5.39,5.39,0,0,0-.47.6" transform="translate(-345.92 -238.27)"/><path class="cls-15" d="M393.25,367.76l-4.56-2.48c.27-.29.55-.57.82-.82l4.56,2.48c-.27.25-.56.53-.82.82" transform="translate(-345.92 -238.27)"/><path class="cls-5" d="M394.07,366.94l-4.56-2.48a12.57,12.57,0,0,1,1.3-1l4.55,2.48a12.84,12.84,0,0,0-1.29,1" transform="translate(-345.92 -238.27)"/><path class="cls-6" d="M395.36,365.92l-4.55-2.48.05,0,4.56,2.48-.06,0" transform="translate(-345.92 -238.27)"/></g></g></g><g class="cls-2"><g class="cls-42"><g class="cls-2"><path class="cls-29" d="M429.35,299l-4.56-2.48a1,1,0,0,1,.39,0l4.56,2.48a1,1,0,0,0-.39,0" transform="translate(-345.92 -238.27)"/><path class="cls-30" d="M429.74,299.06l-4.56-2.48.19.07,4.56,2.48-.19-.07" transform="translate(-345.92 -238.27)"/><path class="cls-31" d="M429.93,299.13l-4.56-2.48,0,0,4.56,2.48,0,0" transform="translate(-345.92 -238.27)"/></g></g></g><g class="cls-2"><g class="cls-43"><g class="cls-2"><path class="cls-34" d="M428.21,300.07l-4.56-2.48,0-.09,4.56,2.48,0,.09" transform="translate(-345.92 -238.27)"/><path class="cls-35" d="M428.24,300l-4.56-2.48c0-.09.07-.17.11-.25l4.56,2.48a1.89,1.89,0,0,0-.11.25" transform="translate(-345.92 -238.27)"/><path class="cls-36" d="M428.35,299.73l-4.56-2.48.1-.15,4.56,2.48a.78.78,0,0,0-.1.15" transform="translate(-345.92 -238.27)"/><path class="cls-37" d="M428.45,299.58l-4.56-2.48A.62.62,0,0,1,424,297l4.56,2.48-.09.12" transform="translate(-345.92 -238.27)"/><path class="cls-38" d="M428.54,299.46,424,297l.11-.11,4.55,2.48-.1.11" transform="translate(-345.92 -238.27)"/><path class="cls-31" d="M428.64,299.35l-4.55-2.48.12-.09,4.56,2.48-.13.09" transform="translate(-345.92 -238.27)"/><path class="cls-30" d="M428.77,299.26l-4.56-2.48a1,1,0,0,1,.17-.1l4.56,2.48a1,1,0,0,0-.17.1" transform="translate(-345.92 -238.27)"/><path class="cls-29" d="M428.94,299.16l-4.56-2.48a1.31,1.31,0,0,1,.41-.12l4.56,2.48a1.31,1.31,0,0,0-.41.12" transform="translate(-345.92 -238.27)"/></g></g></g><g class="cls-2"><g class="cls-44"><g class="cls-2"><path class="cls-7" d="M382.77,381.86l-4.56-2.48a2.59,2.59,0,0,1,1.08.05l4.56,2.48a2.6,2.6,0,0,0-1.08-.05" transform="translate(-345.92 -238.27)"/><path class="cls-6" d="M383.85,381.91l-4.56-2.48a3.54,3.54,0,0,1,.49.18l4.56,2.48a3.54,3.54,0,0,0-.49-.18" transform="translate(-345.92 -238.27)"/><path class="cls-5" d="M384.34,382.09l-4.56-2.48.1.05,4.56,2.48-.1-.05" transform="translate(-345.92 -238.27)"/></g></g></g><g class="cls-2"><g class="cls-45"><g class="cls-2"><path class="cls-10" d="M381.09,388.3l-4.56-2.48a2.93,2.93,0,0,1-1.44-2.64,4,4,0,0,1,.24-1.33l4.56,2.48a4,4,0,0,0-.24,1.33,2.93,2.93,0,0,0,1.44,2.64" transform="translate(-345.92 -238.27)"/><path class="cls-18" d="M379.89,384.33l-4.56-2.48a4.9,4.9,0,0,1,.24-.52l4.56,2.48a3.48,3.48,0,0,0-.24.52" transform="translate(-345.92 -238.27)"/><path class="cls-17" d="M380.13,383.81l-4.56-2.48a3.45,3.45,0,0,1,.25-.41l4.56,2.48a3.45,3.45,0,0,0-.25.41" transform="translate(-345.92 -238.27)"/><path class="cls-16" d="M380.38,383.4l-4.56-2.48a3.44,3.44,0,0,1,.28-.36l4.56,2.48a3.44,3.44,0,0,0-.28.36" transform="translate(-345.92 -238.27)"/><path class="cls-15" d="M380.66,383l-4.56-2.48c.1-.11.21-.22.32-.32l4.56,2.48c-.11.1-.22.21-.32.32" transform="translate(-345.92 -238.27)"/><path class="cls-5" d="M381,382.72l-4.56-2.48a3.47,3.47,0,0,1,.37-.3l4.56,2.48a3.47,3.47,0,0,0-.37.3" transform="translate(-345.92 -238.27)"/><path class="cls-6" d="M381.35,382.42l-4.56-2.48a3.7,3.7,0,0,1,.51-.29l4.56,2.48a3.2,3.2,0,0,0-.51.29" transform="translate(-345.92 -238.27)"/><path class="cls-7" d="M381.86,382.13l-4.56-2.48a3,3,0,0,1,.91-.27l4.56,2.48a2.9,2.9,0,0,0-.91.27" transform="translate(-345.92 -238.27)"/></g></g></g><ellipse class="cls-22" cx="382.77" cy="385.22" rx="3.5" ry="2.99" transform="translate(-484.45 299.11) rotate(-61.45)"/><g class="cls-2"><g class="cls-46"><g class="cls-2"><path class="cls-31" d="M423.41,302.66l-4.55-2.48.07,0,4.55,2.48-.07,0" transform="translate(-345.92 -238.27)"/><path class="cls-30" d="M423.48,302.69l-4.55-2.48a2.26,2.26,0,0,0,.39.15l4.56,2.48a2.74,2.74,0,0,1-.4-.15" transform="translate(-345.92 -238.27)"/><path class="cls-29" d="M423.88,302.84l-4.56-2.48a3.36,3.36,0,0,0,1.28,0h0a2.94,2.94,0,0,0,.89-.27l4.56,2.48a2.94,2.94,0,0,1-.89.27h0a3.36,3.36,0,0,1-1.28,0" transform="translate(-345.92 -238.27)"/><path class="cls-30" d="M426.09,302.6l-4.56-2.48a3.7,3.7,0,0,0,.51-.29l4.56,2.48a4.4,4.4,0,0,1-.51.29" transform="translate(-345.92 -238.27)"/><path class="cls-31" d="M426.6,302.31,422,299.83a3.57,3.57,0,0,0,.38-.3L427,302a3.57,3.57,0,0,1-.38.3" transform="translate(-345.92 -238.27)"/><path class="cls-38" d="M427,302l-4.56-2.48a.27.27,0,0,1,.08-.07l.28-.29,4.56,2.48a4,4,0,0,1-.29.29L427,302" transform="translate(-345.92 -238.27)"/><path class="cls-37" d="M427.34,301.65l-4.56-2.48c.1-.12.2-.24.29-.37l4.56,2.48c-.09.13-.19.25-.29.37" transform="translate(-345.92 -238.27)"/><path class="cls-36" d="M427.63,301.28l-4.56-2.48c.09-.14.18-.28.26-.42l4.56,2.48c-.08.14-.17.28-.26.42" transform="translate(-345.92 -238.27)"/><path class="cls-35" d="M427.89,300.86l-4.56-2.48a5.22,5.22,0,0,0,.24-.54l4.56,2.48a5.22,5.22,0,0,1-.24.54" transform="translate(-345.92 -238.27)"/><path class="cls-34" d="M428.13,300.32l-4.56-2.48a1.83,1.83,0,0,0,.08-.25l4.56,2.48a1.83,1.83,0,0,1-.08.25" transform="translate(-345.92 -238.27)"/></g></g></g><g class="cls-2"><g class="cls-47"><g class="cls-2"><path class="cls-34" d="M427.39,296.44,422.83,294a1.64,1.64,0,0,0-.5-.41l4.56,2.48a1.64,1.64,0,0,1,.5.41" transform="translate(-345.92 -238.27)"/></g></g></g><g class="cls-2"><g class="cls-48"><g class="cls-2"><path class="cls-34" d="M422.23,305l-4.55-2.48a4.75,4.75,0,0,1-1-.77l4.56,2.48a4.94,4.94,0,0,0,1,.77" transform="translate(-345.92 -238.27)"/></g></g></g><polygon class="cls-3" points="10.84 182.03 6.28 179.54 71.07 170.44 75.63 172.92 10.84 182.03"/><polygon class="cls-49" points="76.02 61.61 71.46 59.13 76.92 55.69 81.47 58.17 76.02 61.61"/><g class="cls-2"><g class="cls-50"><g class="cls-2"><path class="cls-10" d="M454.05,256.8l-4.56-2.48a9.21,9.21,0,0,0-4.55-8.32l4.56,2.48a9.21,9.21,0,0,1,4.55,8.32" transform="translate(-345.92 -238.27)"/></g></g></g><g class="cls-2"><g class="cls-51"><g class="cls-2"><path class="cls-34" d="M421.2,304.21l-4.56-2.48a5.41,5.41,0,0,1-1.65-4.11l4.56,2.48a5.41,5.41,0,0,0,1.65,4.11" transform="translate(-345.92 -238.27)"/></g></g></g><g class="cls-2"><g class="cls-52"><g class="cls-2"><path class="cls-7" d="M382.8,367.44,378.24,365a2.78,2.78,0,0,1,1,.05l4.56,2.48a2.78,2.78,0,0,0-1-.05" transform="translate(-345.92 -238.27)"/><path class="cls-6" d="M383.76,367.49,379.2,365a3.61,3.61,0,0,1,.46.17l4.56,2.48a3.61,3.61,0,0,0-.46-.17" transform="translate(-345.92 -238.27)"/><path class="cls-5" d="M384.22,367.66l-4.56-2.48.09.05,4.56,2.48-.09,0" transform="translate(-345.92 -238.27)"/></g></g></g><g class="cls-2"><g class="cls-53"><g class="cls-2"><path class="cls-34" d="M416.06,306.54l-4.56-2.48a.83.83,0,0,1-.21-.16l4.56,2.48a.83.83,0,0,0,.21.16" transform="translate(-345.92 -238.27)"/></g></g></g><g class="cls-2"><g class="cls-54"><g class="cls-2"><path class="cls-37" d="M421.21,295.54l-4.56-2.48.23-.27,4.56,2.48-.23.27" transform="translate(-345.92 -238.27)"/><path class="cls-38" d="M421.44,295.27l-4.56-2.48a5.66,5.66,0,0,1,.6-.6l4.56,2.48a5.66,5.66,0,0,0-.6.6" transform="translate(-345.92 -238.27)"/><path class="cls-31" d="M422,294.67l-4.56-2.48a7.79,7.79,0,0,1,.65-.52l4.56,2.48a6.44,6.44,0,0,0-.65.52" transform="translate(-345.92 -238.27)"/><path class="cls-30" d="M422.69,294.15l-4.56-2.48a5,5,0,0,1,.84-.48l4.56,2.48a5,5,0,0,0-.84.48" transform="translate(-345.92 -238.27)"/><path class="cls-29" d="M423.53,293.67,419,291.19a5.52,5.52,0,0,1,1.65-.49h0a4.82,4.82,0,0,1,1.86.1l4.56,2.48a4.82,4.82,0,0,0-1.86-.1h0a5.52,5.52,0,0,0-1.65.49" transform="translate(-345.92 -238.27)"/><path class="cls-30" d="M427.08,293.27l-4.56-2.48a5.33,5.33,0,0,1,.87.32l4.56,2.48a5.33,5.33,0,0,0-.87-.32" transform="translate(-345.92 -238.27)"/><path class="cls-31" d="M428,293.59l-4.56-2.48.16.09,4.56,2.48-.16-.09" transform="translate(-345.92 -238.27)"/></g></g></g><g class="cls-2"><g class="cls-55"><g class="cls-2"><path class="cls-34" d="M415.85,306.38l-4.56-2.48a1.08,1.08,0,0,1-.35-.86l4.56,2.48a1.08,1.08,0,0,0,.35.86" transform="translate(-345.92 -238.27)"/></g></g></g><path class="cls-56" d="M429.35,299a1.07,1.07,0,0,1,1.18,1.1,1.26,1.26,0,0,1-.08.47,7,7,0,0,1-2,3.23,5.92,5.92,0,0,1-3.2,1.6h-.07a4.51,4.51,0,0,1-4-1.24,5.41,5.41,0,0,1-1.65-4.11,7.06,7.06,0,0,1,1.66-4.56,6.06,6.06,0,0,1,4-2.36h0a4.7,4.7,0,0,1,3,.58,4.79,4.79,0,0,1,2,2.29,1.35,1.35,0,0,1,0,1,1.46,1.46,0,0,1-.63.81l-3.59,2.28-3.24,2.06a2.33,2.33,0,0,0,2.31.7h0a3.34,3.34,0,0,0,1.85-.93,4.2,4.2,0,0,0,1.16-1.87A1.35,1.35,0,0,1,429.35,299Zm-7.41.76v.08l5.45-3.44a2.29,2.29,0,0,0-2.21-.63h-.06a3.51,3.51,0,0,0-2.24,1.34,4.15,4.15,0,0,0-.94,2.64" transform="translate(-345.92 -238.27)"/><g class="cls-2"><g class="cls-57"><g class="cls-2"><path class="cls-34" d="M419.55,300.1,415,297.62a6.81,6.81,0,0,1,.43-2.43l4.56,2.48a6.81,6.81,0,0,0-.43,2.43" transform="translate(-345.92 -238.27)"/><path class="cls-35" d="M420,297.67l-4.56-2.48a6.88,6.88,0,0,1,.42-.92l4.55,2.48a6.81,6.81,0,0,0-.41.92" transform="translate(-345.92 -238.27)"/><path class="cls-36" d="M420.39,296.75l-4.55-2.48a6.59,6.59,0,0,1,.44-.72l4.56,2.48q-.24.35-.45.72" transform="translate(-345.92 -238.27)"/><path class="cls-37" d="M420.84,296l-4.56-2.48c.12-.17.24-.33.37-.49l4.56,2.48c-.13.16-.25.32-.37.49" transform="translate(-345.92 -238.27)"/></g></g></g><g class="cls-2"><g class="cls-58"><g class="cls-2"><path class="cls-10" d="M381.27,374.86l-4.55-2.48a3.43,3.43,0,0,1-1.6-3.13,5,5,0,0,1,.3-1.69L380,370a5,5,0,0,0-.31,1.69,3.48,3.48,0,0,0,1.6,3.13" transform="translate(-345.92 -238.27)"/><path class="cls-18" d="M380,370l-4.56-2.48a4.46,4.46,0,0,1,.28-.63l4.56,2.48a4.46,4.46,0,0,0-.28.63" transform="translate(-345.92 -238.27)"/><path class="cls-17" d="M380.26,369.41l-4.56-2.48a3.58,3.58,0,0,1,.29-.46l4.55,2.48a5.11,5.11,0,0,0-.28.46" transform="translate(-345.92 -238.27)"/><path class="cls-16" d="M380.54,369,376,366.47a3.8,3.8,0,0,1,.29-.38l4.56,2.48c-.1.12-.2.24-.3.38" transform="translate(-345.92 -238.27)"/><path class="cls-15" d="M380.84,368.57l-4.56-2.48c.11-.12.21-.23.32-.33l4.56,2.48a3.34,3.34,0,0,0-.32.33" transform="translate(-345.92 -238.27)"/><path class="cls-5" d="M381.16,368.24l-4.56-2.48c.12-.1.24-.2.37-.29l4.56,2.48c-.13.09-.25.19-.37.29" transform="translate(-345.92 -238.27)"/><path class="cls-6" d="M381.53,368,377,365.47a3,3,0,0,1,.46-.26l4.56,2.48a3,3,0,0,0-.46.26" transform="translate(-345.92 -238.27)"/><path class="cls-7" d="M382,367.69l-4.56-2.48a2.92,2.92,0,0,1,.81-.25l4.56,2.48a2.92,2.92,0,0,0-.81.25" transform="translate(-345.92 -238.27)"/></g></g></g><path class="cls-22" d="M382.8,367.44c1.72-.24,3.11,1.29,3.11,3.41s-1.4,4-3.13,4.28-3.11-1.28-3.11-3.4S381.08,367.69,382.8,367.44Z" transform="translate(-345.92 -238.27)"/><polygon class="cls-59" points="69.58 67.25 65.02 64.77 65.03 58.95 69.59 61.43 69.58 67.25"/><g class="cls-2"><g class="cls-60"><g class="cls-2"><path class="cls-34" d="M415.51,299.7,411,297.22a2.13,2.13,0,0,0-1.08-2l4.56,2.48a2.13,2.13,0,0,1,1.08,2" transform="translate(-345.92 -238.27)"/></g></g></g><g class="cls-2"><g class="cls-61"><g class="cls-2"><path class="cls-34" d="M409,307.53l-4.56-2.48a.83.83,0,0,1-.21-.16l4.56,2.48a.83.83,0,0,0,.21.16" transform="translate(-345.92 -238.27)"/></g></g></g><g class="cls-2"><g class="cls-62"><g class="cls-2"><path class="cls-34" d="M408.82,307.37l-4.56-2.48a1.08,1.08,0,0,1-.35-.86l4.56,2.48a1.05,1.05,0,0,0,.35.86" transform="translate(-345.92 -238.27)"/></g></g></g><g class="cls-2"><g class="cls-63"><g class="cls-2"><path class="cls-29" d="M413.2,294.86l-4.55-2.48a4.1,4.1,0,0,1,1.61.07l4.55,2.48a4.09,4.09,0,0,0-1.61-.07" transform="translate(-345.92 -238.27)"/><path class="cls-30" d="M414.81,294.93l-4.55-2.48a4.85,4.85,0,0,1,.69.26l4.55,2.48a4.08,4.08,0,0,0-.69-.26" transform="translate(-345.92 -238.27)"/><path class="cls-31" d="M415.5,295.19,411,292.71l.13.07,4.56,2.48-.14-.07" transform="translate(-345.92 -238.27)"/></g></g></g><polygon class="cls-59" points="62.55 68.24 57.99 65.76 58 59.93 62.56 62.41 62.55 68.24"/><g class="cls-2"><g class="cls-64"><g class="cls-2"><path class="cls-37" d="M403.42,309.54l-4.56-2.48.16-.21,4.56,2.48-.16.21" transform="translate(-345.92 -238.27)"/><path class="cls-36" d="M403.58,309.33,399,306.85a2,2,0,0,0,.19-.31l4.56,2.48a3.21,3.21,0,0,1-.19.31" transform="translate(-345.92 -238.27)"/><path class="cls-35" d="M403.77,309l-4.56-2.48a2.87,2.87,0,0,0,.18-.4l4.56,2.48a2.87,2.87,0,0,1-.18.4" transform="translate(-345.92 -238.27)"/><path class="cls-34" d="M404,308.62l-4.56-2.48a2.8,2.8,0,0,0,.18-1l4.56,2.48a2.8,2.8,0,0,1-.18,1" transform="translate(-345.92 -238.27)"/></g></g></g><polygon class="cls-59" points="58.21 69.36 53.66 66.88 53.66 66.8 58.21 69.28 58.21 69.36"/><g class="cls-2"><g class="cls-65"><g class="cls-2"><path class="cls-37" d="M409.87,296.84l-4.56-2.48a2.75,2.75,0,0,1,.22-.26l4.56,2.48a2.75,2.75,0,0,0-.22.26" transform="translate(-345.92 -238.27)"/><path class="cls-38" d="M410.09,296.58l-4.56-2.48a4.89,4.89,0,0,1,.45-.46l4.56,2.48a4.89,4.89,0,0,0-.45.46" transform="translate(-345.92 -238.27)"/><path class="cls-31" d="M410.54,296.12,406,293.64c.17-.15.36-.3.54-.43l4.56,2.48a5.66,5.66,0,0,0-.54.43" transform="translate(-345.92 -238.27)"/><path class="cls-30" d="M411.08,295.69l-4.56-2.48a5.41,5.41,0,0,1,.74-.42l4.56,2.48a5.41,5.41,0,0,0-.74.42" transform="translate(-345.92 -238.27)"/><path class="cls-29" d="M411.82,295.27l-4.56-2.48a4.44,4.44,0,0,1,1.33-.4h.06l4.55,2.48h-.05a4.44,4.44,0,0,0-1.33.4" transform="translate(-345.92 -238.27)"/></g></g></g><path class="cls-56" d="M413.2,294.86a3.81,3.81,0,0,1,3.32,1.05,4.56,4.56,0,0,1,1.38,3.45v5.83a1.46,1.46,0,0,1-.36.95,1.18,1.18,0,0,1-.8.5,1,1,0,0,1-.88-.26,1.08,1.08,0,0,1-.35-.86V299.7a2.25,2.25,0,0,0-.67-1.71,2,2,0,0,0-1.65-.52,2.66,2.66,0,0,0-1.63,1l0,0a3,3,0,0,0-.68,1.89v5.83a1.4,1.4,0,0,1-.35.95,1.27,1.27,0,0,1-.8.5,1,1,0,0,1-.88-.26,1.05,1.05,0,0,1-.35-.86v-5.83a5.93,5.93,0,0,1,1.39-3.84,5.11,5.11,0,0,1,3.28-2Z" transform="translate(-345.92 -238.27)"/><g class="cls-2"><g class="cls-66"><g class="cls-2"><path class="cls-34" d="M408.48,300.68l-4.56-2.48a5.73,5.73,0,0,1,.35-2l4.56,2.47a5.82,5.82,0,0,0-.35,2.05" transform="translate(-345.92 -238.27)"/><path class="cls-35" d="M408.83,298.63l-4.56-2.47a6.2,6.2,0,0,1,.36-.79l4.56,2.48a6.78,6.78,0,0,0-.36.78" transform="translate(-345.92 -238.27)"/><path class="cls-36" d="M409.19,297.85l-4.56-2.48c.11-.21.24-.41.37-.61l4.56,2.48c-.13.2-.26.4-.37.61" transform="translate(-345.92 -238.27)"/><path class="cls-37" d="M409.56,297.24,405,294.76c.1-.14.2-.27.31-.4l4.56,2.48c-.11.13-.21.26-.31.4" transform="translate(-345.92 -238.27)"/></g></g></g><g class="cls-2"><g class="cls-67"><g class="cls-2"><path class="cls-31" d="M400.43,310.29l-4.55-2.48,0,0,4.56,2.48,0,0" transform="translate(-345.92 -238.27)"/><path class="cls-30" d="M400.47,310.31l-4.56-2.48a2.74,2.74,0,0,0,.4.15l4.56,2.48a2.74,2.74,0,0,1-.4-.15" transform="translate(-345.92 -238.27)"/><path class="cls-29" d="M400.87,310.46,396.31,308a2.42,2.42,0,0,0,.93,0,2.19,2.19,0,0,0,.66-.2l4.56,2.48a2.19,2.19,0,0,1-.66.2,2.42,2.42,0,0,1-.93-.05" transform="translate(-345.92 -238.27)"/><path class="cls-30" d="M402.46,310.31l-4.56-2.48a2.71,2.71,0,0,0,.37-.21l4.56,2.48a2.71,2.71,0,0,1-.37.21" transform="translate(-345.92 -238.27)"/><path class="cls-31" d="M402.83,310.1l-4.56-2.48.27-.22,4.56,2.48-.27.22" transform="translate(-345.92 -238.27)"/><path class="cls-38" d="M403.1,309.88l-4.56-2.48.23-.23,4.56,2.48-.23.23" transform="translate(-345.92 -238.27)"/><path class="cls-37" d="M403.33,309.65l-4.56-2.48.09-.11,4.56,2.48-.09.11" transform="translate(-345.92 -238.27)"/></g></g></g><g class="cls-2"><g class="cls-68"><g class="cls-2"><path class="cls-31" d="M400.32,310.24l-4.56-2.48.08,0,4.55,2.48-.07,0" transform="translate(-345.92 -238.27)"/><path class="cls-30" d="M400.39,310.27l-4.55-2.48,0,0,4.55,2.48,0,0" transform="translate(-345.92 -238.27)"/></g></g></g><g class="cls-2"><g class="cls-69"><g class="cls-2"><path class="cls-37" d="M403.45,304.93l-4.56-2.48.15-.2,4.56,2.48-.15.2" transform="translate(-345.92 -238.27)"/><path class="cls-36" d="M403.6,304.73,399,302.25a3.21,3.21,0,0,0,.19-.31l4.56,2.48a3.21,3.21,0,0,1-.19.31" transform="translate(-345.92 -238.27)"/><path class="cls-35" d="M403.79,304.42l-4.56-2.48a1.84,1.84,0,0,0,.17-.38L404,304a2.59,2.59,0,0,1-.17.38" transform="translate(-345.92 -238.27)"/><path class="cls-34" d="M404,304l-4.56-2.48a3,3,0,0,0,.18-1l4.56,2.48a3,3,0,0,1-.18,1" transform="translate(-345.92 -238.27)"/></g></g></g><g class="cls-2"><g class="cls-70"><g class="cls-2"><path class="cls-29" d="M401.81,305.9l-4.56-2.48a2.12,2.12,0,0,0,.69-.21l4.56,2.48a2.12,2.12,0,0,1-.69.21" transform="translate(-345.92 -238.27)"/><path class="cls-30" d="M402.5,305.69l-4.56-2.48a2.16,2.16,0,0,0,.36-.2l4.56,2.48a2.16,2.16,0,0,1-.36.2" transform="translate(-345.92 -238.27)"/><path class="cls-31" d="M402.86,305.49,398.3,303l.26-.21,4.56,2.48-.26.21" transform="translate(-345.92 -238.27)"/><path class="cls-38" d="M403.12,305.28l-4.56-2.48.22-.22,4.56,2.48-.22.22" transform="translate(-345.92 -238.27)"/><path class="cls-37" d="M403.34,305.06l-4.56-2.48.11-.13,4.56,2.48-.11.13" transform="translate(-345.92 -238.27)"/></g></g></g><g class="cls-2"><g class="cls-71"><g class="cls-2"><path class="cls-30" d="M398.89,308.87l-4.56-2.48a.35.35,0,0,1,.14.06l4.56,2.47-.14-.05" transform="translate(-345.92 -238.27)"/><path class="cls-31" d="M399,308.92l-4.56-2.47h0l4.56,2.48,0,0" transform="translate(-345.92 -238.27)"/></g></g></g><g class="cls-2"><g class="cls-72"><g class="cls-2"><path class="cls-31" d="M400.58,305.7,396,303.22l.06,0,4.56,2.48-.06,0" transform="translate(-345.92 -238.27)"/><path class="cls-30" d="M400.64,305.74l-4.56-2.48a2.6,2.6,0,0,0,.36.13l4.56,2.48a2.6,2.6,0,0,1-.36-.13" transform="translate(-345.92 -238.27)"/><path class="cls-29" d="M401,305.87l-4.56-2.48a2.14,2.14,0,0,0,.76,0h.05l4.56,2.48h-.05a2.14,2.14,0,0,1-.76,0" transform="translate(-345.92 -238.27)"/></g></g></g><g class="cls-2"><g class="cls-73"><g class="cls-2"><path class="cls-34" d="M399,312.65l-4.56-2.48a3.91,3.91,0,0,1-1.66-1.75l4.55,2.48a4,4,0,0,0,1.67,1.75" transform="translate(-345.92 -238.27)"/></g></g></g><g class="cls-2"><g class="cls-74"><g class="cls-2"><path class="cls-29" d="M398.48,308.84l-4.56-2.48a1.12,1.12,0,0,1,.41,0l4.56,2.48a1.12,1.12,0,0,0-.41,0" transform="translate(-345.92 -238.27)"/><polyline class="cls-30" points="52.97 70.6 48.41 68.12 48.41 68.12 52.97 70.6 52.97 70.6"/></g></g></g><g class="cls-2"><g class="cls-75"><g class="cls-2"><path class="cls-29" d="M405.34,296l-4.56-2.47a1,1,0,0,1,.43,0l4.56,2.48a1.21,1.21,0,0,0-.43,0" transform="translate(-345.92 -238.27)"/><path class="cls-30" d="M405.77,296l-4.56-2.48.17.06,4.55,2.48-.16-.06" transform="translate(-345.92 -238.27)"/><path class="cls-31" d="M405.93,296l-4.55-2.48,0,0,4.55,2.48,0,0" transform="translate(-345.92 -238.27)"/></g></g></g><g class="cls-2"><g class="cls-76"><g class="cls-2"><path class="cls-29" d="M398.06,309l-4.56-2.48a1.6,1.6,0,0,1,.42-.14l4.56,2.48a1.48,1.48,0,0,0-.42.14" transform="translate(-345.92 -238.27)"/></g></g></g><polygon class="cls-77" points="52.1 70.74 47.54 68.26 47.58 68.23 52.14 70.71 52.1 70.74"/><polygon class="cls-59" points="58.22 64.76 53.66 62.28 53.67 56.69 58.23 59.17 58.22 64.76"/><g class="cls-2"><g class="cls-78"><g class="cls-2"><path class="cls-34" d="M397.37,310.9l-4.55-2.48a1.19,1.19,0,0,1-.14-.56,1.27,1.27,0,0,1,.09-.47l4.56,2.48a1.27,1.27,0,0,0-.09.47,1.32,1.32,0,0,0,.13.56" transform="translate(-345.92 -238.27)"/><path class="cls-35" d="M397.33,309.87l-4.56-2.48v0l4.56,2.48v0" transform="translate(-345.92 -238.27)"/></g></g></g><g class="cls-2"><g class="cls-79"><g class="cls-2"><path class="cls-34" d="M397.34,309.84l-4.56-2.48,0-.09,4.55,2.48a.29.29,0,0,0,0,.09" transform="translate(-345.92 -238.27)"/><path class="cls-35" d="M397.36,309.75l-4.55-2.48a1.42,1.42,0,0,1,.08-.18l4.56,2.48a1.51,1.51,0,0,0-.09.18" transform="translate(-345.92 -238.27)"/><path class="cls-36" d="M397.45,309.57l-4.56-2.48A1,1,0,0,1,393,307l4.56,2.48a1,1,0,0,0-.08.14" transform="translate(-345.92 -238.27)"/><path class="cls-37" d="M397.53,309.43,393,307l.1-.12,4.56,2.48-.1.12" transform="translate(-345.92 -238.27)"/><path class="cls-38" d="M397.63,309.31l-4.56-2.48a.57.57,0,0,1,.11-.11l4.56,2.48-.11.11" transform="translate(-345.92 -238.27)"/><path class="cls-31" d="M397.74,309.2l-4.56-2.48.13-.1,4.56,2.48-.13.1" transform="translate(-345.92 -238.27)"/><path class="cls-30" d="M397.87,309.1l-4.56-2.48.15-.09L398,309a.46.46,0,0,0-.15.09" transform="translate(-345.92 -238.27)"/></g></g></g><g class="cls-2"><g class="cls-80"><g class="cls-2"><path class="cls-37" d="M404.5,296.47,399.94,294l.05-.06,4.56,2.48-.05.06" transform="translate(-345.92 -238.27)"/><path class="cls-38" d="M404.55,296.41,400,293.93a1.36,1.36,0,0,1,.12-.12l4.56,2.48a1.36,1.36,0,0,0-.12.12" transform="translate(-345.92 -238.27)"/><path class="cls-31" d="M404.67,296.29l-4.56-2.48.14-.12,4.56,2.48-.14.12" transform="translate(-345.92 -238.27)"/><path class="cls-30" d="M404.81,296.17l-4.56-2.48.19-.1,4.56,2.48-.19.1" transform="translate(-345.92 -238.27)"/><path class="cls-29" d="M405,296.07l-4.56-2.48a1,1,0,0,1,.34-.1l4.56,2.47a1.35,1.35,0,0,0-.34.11" transform="translate(-345.92 -238.27)"/></g></g></g><g class="cls-2"><g class="cls-81"><g class="cls-2"><path class="cls-34" d="M399.35,308.1l-4.56-2.48a3.75,3.75,0,0,1-.87-.64l4.56,2.48a3.75,3.75,0,0,0,.87.64" transform="translate(-345.92 -238.27)"/></g></g></g><g class="cls-2"><g class="cls-82"><g class="cls-2"><path class="cls-34" d="M404.15,297.44,399.59,295a1.5,1.5,0,0,1,.09-.52l4.56,2.48a1.5,1.5,0,0,0-.09.52" transform="translate(-345.92 -238.27)"/><path class="cls-35" d="M404.24,296.92l-4.56-2.48a1.21,1.21,0,0,1,.09-.2l4.56,2.48a.72.72,0,0,0-.09.2" transform="translate(-345.92 -238.27)"/><path class="cls-36" d="M404.33,296.72l-4.56-2.48.09-.15,4.56,2.48a.6.6,0,0,0-.09.15" transform="translate(-345.92 -238.27)"/><path class="cls-37" d="M404.42,296.57l-4.56-2.48.08-.1,4.56,2.48-.08.1" transform="translate(-345.92 -238.27)"/></g></g></g><g class="cls-2"><g class="cls-83"><g class="cls-2"><path class="cls-7" d="M424.32,258.09l-4.55-2.48a2.87,2.87,0,0,1,1,.06l4.56,2.48a2.93,2.93,0,0,0-1-.06" transform="translate(-345.92 -238.27)"/><path class="cls-6" d="M425.35,258.15l-4.56-2.48a2.62,2.62,0,0,1,.49.19l4.56,2.48a2.62,2.62,0,0,0-.49-.19" transform="translate(-345.92 -238.27)"/><path class="cls-5" d="M425.84,258.34l-4.56-2.48.1,0,4.56,2.48-.1-.05" transform="translate(-345.92 -238.27)"/></g></g></g><polygon class="cls-3" points="78.3 19.84 73.74 17.36 73.85 17.34 78.41 19.82 78.3 19.84"/><g class="cls-2"><g class="cls-84"><g class="cls-2"><path class="cls-34" d="M398.48,307.46,393.92,305a4.53,4.53,0,0,1-1.38-3.44L397.1,304a4.5,4.5,0,0,0,1.38,3.44" transform="translate(-345.92 -238.27)"/></g></g></g><g class="cls-2"><g class="cls-85"><g class="cls-2"><path class="cls-34" d="M393.33,309.74l-4.56-2.48a.83.83,0,0,1-.21-.16l4.56,2.48a.83.83,0,0,0,.21.16" transform="translate(-345.92 -238.27)"/></g></g></g><g class="cls-2"><g class="cls-86"><g class="cls-2"><path class="cls-34" d="M393.12,309.58l-4.56-2.48a1.08,1.08,0,0,1-.35-.86l4.56,2.48a1.06,1.06,0,0,0,.35.86" transform="translate(-345.92 -238.27)"/></g></g></g><g class="cls-2"><g class="cls-87"><g class="cls-2"><path class="cls-29" d="M398.3,297l-4.56-2.48a1,1,0,0,1,.43,0l4.55,2.48a1,1,0,0,0-.42,0" transform="translate(-345.92 -238.27)"/><path class="cls-30" d="M398.72,297l-4.55-2.48a.49.49,0,0,1,.17.06L398.9,297a.48.48,0,0,0-.18-.06" transform="translate(-345.92 -238.27)"/><path class="cls-31" d="M398.9,297l-4.56-2.48,0,0,4.56,2.48,0,0" transform="translate(-345.92 -238.27)"/></g></g></g><polygon class="cls-59" points="51.18 65.75 46.62 63.27 46.63 57.68 51.19 60.16 51.18 65.75"/><g class="cls-2"><g class="cls-88"><g class="cls-2"><path class="cls-37" d="M397.46,297.46,392.9,295l.07-.08,4.56,2.48-.07.08" transform="translate(-345.92 -238.27)"/><path class="cls-38" d="M397.53,297.38,393,294.9l.11-.11,4.56,2.48-.11.11" transform="translate(-345.92 -238.27)"/><path class="cls-31" d="M397.64,297.27l-4.56-2.48.14-.11,4.56,2.48-.14.11" transform="translate(-345.92 -238.27)"/><path class="cls-30" d="M397.78,297.16l-4.56-2.48.18-.1,4.56,2.48a1,1,0,0,0-.18.1" transform="translate(-345.92 -238.27)"/><path class="cls-29" d="M398,297.06l-4.56-2.48a1.35,1.35,0,0,1,.34-.11L398.3,297a1.35,1.35,0,0,0-.34.11" transform="translate(-345.92 -238.27)"/></g></g></g><path class="cls-56" d="M405.34,296a.94.94,0,0,1,.85.27,1.21,1.21,0,0,1,.35.87l0,10.2a5.89,5.89,0,0,1-1.47,3.85,5.11,5.11,0,0,1-3.25,2h-.05a4.46,4.46,0,0,1-2.61-.42,4,4,0,0,1-1.77-1.81,1.32,1.32,0,0,1-.13-.56,1.24,1.24,0,0,1,.1-.5A1.35,1.35,0,0,1,398,309l0,0a1.48,1.48,0,0,1,.42-.14,1.12,1.12,0,0,1,.41,0,1,1,0,0,1,.61.53,2,2,0,0,0,.93.89,2.29,2.29,0,0,0,1.37.22,2.59,2.59,0,0,0,1.62-1,3,3,0,0,0,.71-1.91v-.08a4.08,4.08,0,0,1-2.32.95,3.82,3.82,0,0,1-3.33-1A4.5,4.5,0,0,1,397.1,304v-5.59a1.56,1.56,0,0,1,.35-1,1.34,1.34,0,0,1,.84-.51,1,1,0,0,1,.85.27,1.15,1.15,0,0,1,.35.87v5.6a2.26,2.26,0,0,0,.67,1.7,1.89,1.89,0,0,0,1.6.52h.05a2.56,2.56,0,0,0,1.64-1,3,3,0,0,0,.69-1.9v-5.59a1.45,1.45,0,0,1,.35-1A1.34,1.34,0,0,1,405.34,296Z" transform="translate(-345.92 -238.27)"/><g class="cls-2"><g class="cls-89"><g class="cls-2"><path class="cls-34" d="M397.11,298.43,392.55,296a1.54,1.54,0,0,1,.09-.52l4.56,2.48a1.54,1.54,0,0,0-.09.52" transform="translate(-345.92 -238.27)"/><path class="cls-35" d="M397.2,297.91l-4.56-2.48.09-.2,4.56,2.48-.09.2" transform="translate(-345.92 -238.27)"/><path class="cls-36" d="M397.29,297.71l-4.56-2.48.1-.15,4.55,2.48-.09.15" transform="translate(-345.92 -238.27)"/><path class="cls-37" d="M397.38,297.56l-4.55-2.48.07-.1,4.56,2.48-.08.1" transform="translate(-345.92 -238.27)"/></g></g></g><polygon class="cls-59" points="46.85 70.45 42.29 67.97 42.3 62.11 46.86 64.59 46.85 70.45"/><g class="cls-2"><g class="cls-90"><g class="cls-2"><path class="cls-34" d="M392.78,302.86l-4.56-2.48a2.24,2.24,0,0,0-.67-1.69,2.13,2.13,0,0,0-.4-.29l4.56,2.48a2.13,2.13,0,0,1,.4.29,2.24,2.24,0,0,1,.67,1.69" transform="translate(-345.92 -238.27)"/></g></g></g><g class="cls-2"><g class="cls-91"><g class="cls-2"><path class="cls-34" d="M386.33,310.72l-4.56-2.48a1.46,1.46,0,0,1-.21-.16l4.56,2.48a1.06,1.06,0,0,0,.21.16" transform="translate(-345.92 -238.27)"/></g></g></g><g class="cls-2"><g class="cls-92"><g class="cls-2"><path class="cls-34" d="M386.12,310.56l-4.56-2.48a1.11,1.11,0,0,1-.35-.86l4.56,2.48a1.08,1.08,0,0,0,.35.86" transform="translate(-345.92 -238.27)"/></g></g></g><g class="cls-2"><g class="cls-93"><g class="cls-2"><path class="cls-29" d="M390.54,298,386,295.56a4.07,4.07,0,0,1,1.56.09l4.56,2.48a4.07,4.07,0,0,0-1.56-.09" transform="translate(-345.92 -238.27)"/><path class="cls-30" d="M392.1,298.13l-4.56-2.48a3.34,3.34,0,0,1,.71.26l4.56,2.48a3.55,3.55,0,0,0-.71-.26" transform="translate(-345.92 -238.27)"/><path class="cls-31" d="M392.81,298.39l-4.56-2.48.14.07,4.56,2.48-.14-.07" transform="translate(-345.92 -238.27)"/></g></g></g><polygon class="cls-59" points="39.85 71.43 35.3 68.95 35.31 63.09 39.87 65.57 39.85 71.43"/><g class="cls-2"><g class="cls-94"><g class="cls-2"><path class="cls-36" d="M387,300.23l-4.56-2.48.13-.19,4.56,2.48-.13.19" transform="translate(-345.92 -238.27)"/><path class="cls-37" d="M387.11,300l-4.56-2.48a5.2,5.2,0,0,1,.35-.44l4.55,2.48a5.12,5.12,0,0,0-.34.44" transform="translate(-345.92 -238.27)"/><path class="cls-38" d="M387.45,299.6l-4.55-2.48a4.31,4.31,0,0,1,.37-.37l4.55,2.48-.37.37" transform="translate(-345.92 -238.27)"/><path class="cls-31" d="M387.82,299.23l-4.55-2.48a3.75,3.75,0,0,1,.44-.35l4.56,2.48a3,3,0,0,0-.45.35" transform="translate(-345.92 -238.27)"/><path class="cls-30" d="M388.27,298.88l-4.56-2.48a4.61,4.61,0,0,1,.65-.38l4.56,2.48a4.61,4.61,0,0,0-.65.38" transform="translate(-345.92 -238.27)"/><path class="cls-29" d="M388.92,298.5,384.36,296a5.44,5.44,0,0,1,1.56-.45H386l4.56,2.48h-.06a5.35,5.35,0,0,0-1.56.45" transform="translate(-345.92 -238.27)"/></g></g></g><g class="cls-2"><g class="cls-95"><g class="cls-2"><path class="cls-34" d="M385.78,303.84l-4.56-2.48a2.28,2.28,0,0,0-.66-1.69l4.55,2.48a2.25,2.25,0,0,1,.67,1.69" transform="translate(-345.92 -238.27)"/></g></g></g><g class="cls-2"><g class="cls-96"><g class="cls-2"><path class="cls-34" d="M385.11,302.15l-4.55-2.48a2.26,2.26,0,0,0-.41-.3l4.55,2.48a1.73,1.73,0,0,1,.41.3" transform="translate(-345.92 -238.27)"/></g></g></g><g class="cls-2"><g class="cls-97"><g class="cls-2"><path class="cls-34" d="M379.34,311.7l-4.56-2.48a.65.65,0,0,1-.21-.16l4.56,2.48a.65.65,0,0,0,.21.16" transform="translate(-345.92 -238.27)"/></g></g></g><g class="cls-2"><g class="cls-98"><g class="cls-2"><path class="cls-34" d="M379.13,311.54l-4.56-2.48a1.07,1.07,0,0,1-.34-.86l4.56,2.48a1.07,1.07,0,0,0,.34.86" transform="translate(-345.92 -238.27)"/></g></g></g><polygon class="cls-59" points="32.87 72.41 28.31 69.93 28.32 64.07 32.88 66.55 32.87 72.41"/><polygon class="cls-3" points="56.45 22.91 51.9 20.43 73.74 17.36 78.3 19.84 56.45 22.91"/><g class="cls-2"><g class="cls-99"><g class="cls-2"><path class="cls-37" d="M380.17,301l-4.55-2.48a2.43,2.43,0,0,1,.2-.25l4.56,2.48-.21.25" transform="translate(-345.92 -238.27)"/><path class="cls-38" d="M380.38,300.76l-4.56-2.48a5,5,0,0,1,.46-.46l4.56,2.48a5,5,0,0,0-.46.46" transform="translate(-345.92 -238.27)"/><path class="cls-31" d="M380.84,300.3l-4.56-2.48a5.89,5.89,0,0,1,.55-.44l4.55,2.48a5.47,5.47,0,0,0-.54.44" transform="translate(-345.92 -238.27)"/><path class="cls-30" d="M381.38,299.86l-4.55-2.48a5.3,5.3,0,0,1,.73-.42l4.56,2.48a5.41,5.41,0,0,0-.74.42" transform="translate(-345.92 -238.27)"/><path class="cls-29" d="M382.12,299.44,377.56,297a4.79,4.79,0,0,1,1.32-.4h.06a4.36,4.36,0,0,1,1.78.06l4.56,2.48a4.57,4.57,0,0,0-1.79-.07h-.05a4.69,4.69,0,0,0-1.32.4" transform="translate(-345.92 -238.27)"/><path class="cls-30" d="M385.28,299.1l-4.56-2.48a2.94,2.94,0,0,1,.61.22l4.56,2.48a3.16,3.16,0,0,0-.61-.22" transform="translate(-345.92 -238.27)"/><path class="cls-31" d="M385.89,299.32l-4.56-2.48.11.06,4.56,2.48-.11-.06" transform="translate(-345.92 -238.27)"/></g></g></g><g class="cls-2"><g class="cls-100"><g class="cls-2"><path class="cls-34" d="M378.8,304.82l-4.56-2.48a5.73,5.73,0,0,1,.35-2l4.56,2.48a5.73,5.73,0,0,0-.35,2" transform="translate(-345.92 -238.27)"/><path class="cls-35" d="M379.15,302.78l-4.56-2.48c.1-.26.22-.52.35-.78L379.5,302c-.13.26-.25.52-.35.78" transform="translate(-345.92 -238.27)"/><path class="cls-36" d="M379.5,302l-4.56-2.48c.12-.21.24-.41.38-.61l4.56,2.48c-.14.2-.26.4-.38.61" transform="translate(-345.92 -238.27)"/><path class="cls-37" d="M379.88,301.39l-4.56-2.48a3.57,3.57,0,0,1,.3-.38l4.55,2.48c-.1.12-.2.25-.29.38" transform="translate(-345.92 -238.27)"/></g></g></g><path class="cls-56" d="M390.54,298a3.81,3.81,0,0,1,3.25,1,4.61,4.61,0,0,1,1.37,3.43l0,5.86a1.47,1.47,0,0,1-.34,1,1.27,1.27,0,0,1-.81.49.94.94,0,0,1-.87-.25,1.06,1.06,0,0,1-.35-.86v-5.86a2.24,2.24,0,0,0-.67-1.69,1.93,1.93,0,0,0-1.63-.5,2.58,2.58,0,0,0-1.62.94,3,3,0,0,0-.69,1.89v5.87a1.4,1.4,0,0,1-.35.95,1.31,1.31,0,0,1-.8.5,1,1,0,0,1-.89-.26,1.08,1.08,0,0,1-.35-.86v-5.86a2.25,2.25,0,0,0-.67-1.69,1.87,1.87,0,0,0-1.59-.51,2.55,2.55,0,0,0-1.66,1,2.87,2.87,0,0,0-.67,1.88l0,5.86a1.4,1.4,0,0,1-.35.95,1.26,1.26,0,0,1-.81.5,1,1,0,0,1-.88-.26,1.07,1.07,0,0,1-.34-.86v-5.86a5.94,5.94,0,0,1,1.37-3.81,5.18,5.18,0,0,1,3.27-2h.05a3.48,3.48,0,0,1,3.49,1.2,4.74,4.74,0,0,1,3.5-2.18Z" transform="translate(-345.92 -238.27)"/><g class="cls-2"><g class="cls-101"><g class="cls-2"><path class="cls-10" d="M400.69,267.62l-4.56-2.48a2.9,2.9,0,0,1-1.44-2.69,3.72,3.72,0,0,1,.24-1.28l4.55,2.48a4,4,0,0,0-.23,1.28,2.91,2.91,0,0,0,1.44,2.69" transform="translate(-345.92 -238.27)"/><path class="cls-18" d="M399.48,263.65l-4.55-2.48a3.43,3.43,0,0,1,.23-.52l4.56,2.48a4.9,4.9,0,0,0-.24.52" transform="translate(-345.92 -238.27)"/><path class="cls-17" d="M399.72,263.13l-4.56-2.48c.08-.14.16-.28.25-.41l4.56,2.48c-.09.13-.17.27-.25.41" transform="translate(-345.92 -238.27)"/><path class="cls-16" d="M400,262.72l-4.56-2.48.28-.36,4.56,2.48-.28.36" transform="translate(-345.92 -238.27)"/><path class="cls-15" d="M400.25,262.36l-4.56-2.48.32-.32,4.56,2.48c-.11.1-.22.21-.32.32" transform="translate(-345.92 -238.27)"/><path class="cls-5" d="M400.57,262,396,259.56l.38-.3,4.56,2.48-.38.3" transform="translate(-345.92 -238.27)"/><path class="cls-6" d="M401,261.74l-4.56-2.48a3.2,3.2,0,0,1,.51-.29l4.56,2.48a3.2,3.2,0,0,0-.51.29" transform="translate(-345.92 -238.27)"/><path class="cls-7" d="M401.46,261.45,396.9,259a3.19,3.19,0,0,1,.91-.27l4.56,2.48a3.19,3.19,0,0,0-.91.27" transform="translate(-345.92 -238.27)"/></g></g></g><path class="cls-22" d="M402.37,261.18l21.85-3.07.1,0a2.77,2.77,0,0,1,3.07,3,3.87,3.87,0,0,1-3.12,3.74L402.4,267.9h-.1a2.75,2.75,0,0,1-3.05-3A3.85,3.85,0,0,1,402.37,261.18Z" transform="translate(-345.92 -238.27)"/><g class="cls-2"><g class="cls-102"><g class="cls-2"><path class="cls-7" d="M385.66,263.32l-4.56-2.48a2.71,2.71,0,0,1,1.07.05l4.56,2.48a2.71,2.71,0,0,0-1.07-.05" transform="translate(-345.92 -238.27)"/><path class="cls-6" d="M386.73,263.37l-4.56-2.48a3.68,3.68,0,0,1,.5.18l4.56,2.48a4.24,4.24,0,0,0-.5-.18" transform="translate(-345.92 -238.27)"/><path class="cls-5" d="M387.23,263.55l-4.56-2.48.09.05,4.56,2.48-.09-.05" transform="translate(-345.92 -238.27)"/></g></g></g><g class="cls-2"><g class="cls-103"><g class="cls-2"><path class="cls-10" d="M384,269.76l-4.56-2.48a2.92,2.92,0,0,1-1.44-2.64,3.72,3.72,0,0,1,.24-1.32l4.56,2.48a3.72,3.72,0,0,0-.24,1.32,2.9,2.9,0,0,0,1.44,2.64" transform="translate(-345.92 -238.27)"/><path class="cls-18" d="M382.78,265.8l-4.56-2.48a3.43,3.43,0,0,1,.23-.52l4.56,2.48a3.43,3.43,0,0,0-.23.52" transform="translate(-345.92 -238.27)"/><path class="cls-17" d="M383,265.28l-4.56-2.48c.08-.15.17-.28.26-.42l4.56,2.48a3.66,3.66,0,0,0-.26.42" transform="translate(-345.92 -238.27)"/><path class="cls-16" d="M383.27,264.86l-4.56-2.48L379,262l4.56,2.48a4.39,4.39,0,0,0-.28.36" transform="translate(-345.92 -238.27)"/><path class="cls-15" d="M383.55,264.5,379,262l.32-.32,4.56,2.48c-.11.1-.22.21-.32.32" transform="translate(-345.92 -238.27)"/><path class="cls-5" d="M383.87,264.18l-4.56-2.48a3.57,3.57,0,0,1,.38-.3l4.56,2.48a3.57,3.57,0,0,0-.38.3" transform="translate(-345.92 -238.27)"/><path class="cls-6" d="M384.25,263.88l-4.56-2.48a3.2,3.2,0,0,1,.51-.29l4.55,2.48a3.6,3.6,0,0,0-.5.29" transform="translate(-345.92 -238.27)"/><path class="cls-7" d="M384.75,263.59l-4.55-2.48a3.12,3.12,0,0,1,.9-.27l4.56,2.48a3.19,3.19,0,0,0-.91.27" transform="translate(-345.92 -238.27)"/></g></g></g><ellipse class="cls-22" cx="385.65" cy="266.68" rx="3.5" ry="2.99" transform="translate(-378.81 239.75) rotate(-61.45)"/><polygon class="cls-3" points="11.09 42.73 6.54 40.25 103.55 26.62 108.11 29.1 11.09 42.73"/><path class="cls-22" d="M484,348.7a16.87,16.87,0,0,1,1.88,7.9L485.74,440a4,4,0,0,1-3.23,3.93l-116,16.3c-8.9,1.24-16.08-5.52-16.07-15.12l.32-173.71c0-9.59,7.24-18.38,16.13-19.63l77.28-10.86c8.88-1.24,16.07,5.52,16.06,15.1l-.09,47.77Zm-127-60-.25,131.6,64.8-9.1-17.4-25.41L395.33,387a2.75,2.75,0,0,1-3.06-2.88,3.87,3.87,0,0,1,3.07-3.84l6.14-.87a18.54,18.54,0,0,1,.22-6.75l-6.19.87c-.21,0-3.4-1.63-3.37-3.56s3.12-4,3.28-4.11l9.95-1.4a20.6,20.6,0,0,1,3.44-3.88,17.57,17.57,0,0,1,9.06-4.29,13.56,13.56,0,0,1,13.34,5.75L449,386.2l4.81-.68.2-110.47-97,13.64M479.51,437.62l.15-80.5a10.1,10.1,0,0,0-1.14-4.78l-18.37-34.46-.13,70a4,4,0,0,1-3.21,3.95L447,393.21a2.75,2.75,0,0,1-2.64-1.08l-19-25.6a8.26,8.26,0,0,0-8.13-3.52,10.71,10.71,0,0,0-5.45,2.53c-4.5,3.85-5.72,10.55-2.72,14.94l21.11,30.63a3.46,3.46,0,0,1,.5,2.55c.32,17.07,13.32,28.94,29.31,26.71l19.57-2.75m-113.14,15.9,73.19-10.29c-8.52-5.27-14-14.68-14.92-25.75L356.74,427l0,17.41c0,5.77,4.31,9.83,9.66,9.09M357,270.43,357,281l97-13.63,0-10.57c0-5.83-4.33-10-9.69-9.21L366.75,258.5c-5.36.76-9.71,6.1-9.72,11.93" transform="translate(-345.92 -238.27)"/><path class="cls-56" d="M431.71,302.06h0a1.45,1.45,0,0,0-1.16,1.41,1,1,0,0,0,1.16,1.11,1.46,1.46,0,0,0,1.17-1.4A1,1,0,0,0,431.71,302.06Z" transform="translate(-345.92 -238.27)"/><g class="cls-2"><g class="cls-104"><g class="cls-2"><path class="cls-7" d="M444.21,240.9l-4.56-2.48a14.23,14.23,0,0,1,5.55.28l4.56,2.48a14.23,14.23,0,0,0-5.55-.28" transform="translate(-345.92 -238.27)"/><path class="cls-6" d="M449.76,241.18l-4.56-2.48a13.88,13.88,0,0,1,2.55.94l4.56,2.48a13.88,13.88,0,0,0-2.55-.94" transform="translate(-345.92 -238.27)"/><path class="cls-5" d="M452.31,242.12l-4.56-2.48.49.26,4.56,2.48-.49-.26" transform="translate(-345.92 -238.27)"/></g></g></g><polygon class="cls-3" points="21.02 13.49 16.46 11.01 93.73 0.15 98.29 2.63 21.02 13.49"/><polygon class="cls-8" points="4.56 206.83 0 204.35 0.32 30.64 4.88 33.12 4.56 206.83"/><g class="cls-2"><g class="cls-105"><g class="cls-2"><path class="cls-10" d="M350.8,271.39l-4.56-2.48a20.15,20.15,0,0,1,1.24-6.83l4.56,2.48a20.15,20.15,0,0,0-1.24,6.83" transform="translate(-345.92 -238.27)"/><path class="cls-18" d="M352,264.56l-4.56-2.48a20.59,20.59,0,0,1,1.22-2.71l4.56,2.48a20.59,20.59,0,0,0-1.22,2.71" transform="translate(-345.92 -238.27)"/><path class="cls-17" d="M353.26,261.85l-4.56-2.48c.4-.73.84-1.44,1.31-2.13l4.56,2.48a23.41,23.41,0,0,0-1.31,2.13" transform="translate(-345.92 -238.27)"/><path class="cls-16" d="M354.57,259.72,350,257.24c.45-.64.94-1.25,1.45-1.84l4.56,2.48c-.51.59-1,1.2-1.45,1.84" transform="translate(-345.92 -238.27)"/><path class="cls-15" d="M356,257.88l-4.56-2.48a21.54,21.54,0,0,1,1.65-1.66l4.56,2.48a21.54,21.54,0,0,0-1.65,1.66" transform="translate(-345.92 -238.27)"/><path class="cls-5" d="M357.67,256.22l-4.56-2.48a20.61,20.61,0,0,1,1.95-1.54l4.55,2.48a20.48,20.48,0,0,0-1.94,1.54" transform="translate(-345.92 -238.27)"/><path class="cls-6" d="M359.61,254.68l-4.55-2.48a18.83,18.83,0,0,1,2.61-1.51l4.56,2.48a19.54,19.54,0,0,0-2.62,1.51" transform="translate(-345.92 -238.27)"/><path class="cls-7" d="M362.23,253.17l-4.56-2.48a16.46,16.46,0,0,1,4.7-1.41l4.56,2.48a16.46,16.46,0,0,0-4.7,1.41" transform="translate(-345.92 -238.27)"/></g></g></g></g></svg>