<svg xmlns="http://www.w3.org/2000/svg" width="91" height="91" viewBox="0 0 91 91"><g transform="translate(-915 -5475)"><g transform="translate(915 5475)" stroke="#707070" stroke-width="1"><circle cx="45.5" cy="45.5" r="45.5" stroke="none"/><circle cx="45.5" cy="45.5" r="45" fill="none"/></g><path d="M318.516,802.443a3.788,3.788,0,0,1-1.2,2.855,4,4,0,0,1-2.855,1.227h-.107a3.931,3.931,0,0,1-2.855-1.2,3.773,3.773,0,0,1-1.2-2.855V783.924A16.217,16.217,0,0,1,326.521,767.7c5.337,0,9.393,1.788,12.115,5.337q4.043-5.323,12.061-5.337a16.217,16.217,0,0,1,16.224,16.224V802.47a4.054,4.054,0,0,1-4.083,4.056h-.08a4.1,4.1,0,0,1-4.056-4.056V783.924a7.982,7.982,0,0,0-13.609-5.63,7.593,7.593,0,0,0-2.322,5.63V802.47a4.1,4.1,0,0,1-4.056,4.056h-.08a4.1,4.1,0,0,1-2.909-1.2,3.773,3.773,0,0,1-1.2-2.855V783.924a7.7,7.7,0,0,0-2.322-5.63,7.593,7.593,0,0,0-5.63-2.322,7.926,7.926,0,0,0-7.952,7.952v18.519Z" transform="translate(621.445 4720.005)" fill="#fa3b47"/><path d="M363.1,838a7.92,7.92,0,0,0,2.322,5.71A8.045,8.045,0,0,0,379.163,838V820.306a4.1,4.1,0,0,1,1.2-2.909,3.848,3.848,0,0,1,2.909-1.2h.08a3.788,3.788,0,0,1,2.855,1.2,3.972,3.972,0,0,1,1.227,2.909v32.261a16.736,16.736,0,0,1-16.277,16.3,17.506,17.506,0,0,1-9.206-2.508,16.03,16.03,0,0,1-6.137-6.511,4.269,4.269,0,0,1-.48-1.814,3.455,3.455,0,0,1,.347-1.548,3.7,3.7,0,0,1,2.348-2.322l.133-.08a4.535,4.535,0,0,1,1.441-.24,3.737,3.737,0,0,1,1.441.267,3.96,3.96,0,0,1,2.081,1.921,8.3,8.3,0,0,0,3.229,3.282,9.332,9.332,0,0,0,4.75,1.281,8.156,8.156,0,0,0,8.032-8.059v-.267c-1.788,1.334-4.456,2-8.032,2a15.714,15.714,0,0,1-11.528-4.777A15.553,15.553,0,0,1,354.8,838V820.306A4.1,4.1,0,0,1,356,817.4a3.871,3.871,0,0,1,2.855-1.2h.107a3.931,3.931,0,0,1,2.855,1.2,3.972,3.972,0,0,1,1.227,2.909V838Z" transform="translate(588.816 4684.45)" fill="#fa3b47"/><circle cx="4.083" cy="4.083" r="4.083" transform="translate(980.12 5529.306)" fill="#fa3b47" opacity="0.997"/></g></svg>