<?xml version="1.0" encoding="utf-8"?>
<!-- Generator: Adobe Illustrator 24.2.1, SVG Export Plug-In . SVG Version: 6.00 Build 0)  -->
<svg version="1.1" id="Layer_1" xmlns="http://www.w3.org/2000/svg" xmlns:xlink="http://www.w3.org/1999/xlink" x="0px" y="0px"
	 viewBox="0 0 1000 1000" style="enable-background:new 0 0 1000 1000;" xml:space="preserve">
<style type="text/css">
	.st0{fill:#FFFFFF;}
	.st1{fill:#FA3B47;}
	.st2{font-family:'Rubik-Regular';}
	.st3{font-size:70px;}
</style>
<g>
	<path class="st0" d="M611.9,386.4H393.1c-11,0-20.1,10.8-20.1,24v99.1c0,13.2,9,24,20.1,24h79.9l8.6,25.5l17.1,50.8
		c1.7,5.2,6.8,5.2,8.5,0l17.1-50.8l8.6-25.5h79c11,0,20.1-10.8,20.1-24v-99.1C632,397.1,622.9,386.4,611.9,386.4z"/>
	<g>
		<g>
			<g>
				<path class="st1" d="M407.9,451.7c-4.3,0-7.8,3.5-7.8,7.8v25c0,4.3,3.5,7.8,7.8,7.8h9.4c1.8,0,3.4-0.6,4.7-1.6v-39H407.9z"/>
			</g>
		</g>
		<g>
			<g>
				<path class="st1" d="M475,463.4c0-1.9-0.7-3.6-2-4.9c1.5-1.6,2.2-3.7,2-6c-0.4-4-3.9-7.1-8.1-7.1h-19.3c1-2.9,2.5-8.2,2.5-12.5
					c0-6.8-5.7-12.5-9.4-12.5c-3.2,0-5.6,1.8-5.7,1.9c-0.4,0.3-0.6,0.7-0.6,1.2v10.6l-9,19.5l-0.4,0.2v33.4c2.5,1.2,5.8,1.8,7.8,1.8
					h28.6c3.4,0,6.4-2.3,7.1-5.4c0.4-1.6,0.1-3.3-0.6-4.7c2.3-1.2,3.9-3.5,3.9-6.2c0-1.1-0.3-2.2-0.7-3.1
					C473.4,468.5,475,466.1,475,463.4z"/>
			</g>
		</g>
	</g>
	<text transform="matrix(1 0 0 1 515.5359 479.2134)" class="st1 st2 st3">42</text>
</g>
</svg>
