<svg xmlns="http://www.w3.org/2000/svg" width="593" height="170" viewBox="0 0 593 170">
  <path id="Union_15" data-name="Union 15" d="M222.979,160.992a50.806,50.806,0,0,1-19.417-20.875,12.65,12.65,0,0,1-1.494-5.828,12.517,12.517,0,0,1,1.066-4.969,11.878,11.878,0,0,1,7.469-7.461l.427-.227a15.037,15.037,0,0,1,4.587-.758,12.614,12.614,0,0,1,4.587.875,12.855,12.855,0,0,1,6.615,6.156A26.239,26.239,0,0,0,237.063,138.4a29.033,29.033,0,0,0,15.042,4.109,24.3,24.3,0,0,0,17.711-7.57,25.178,25.178,0,0,0,7.681-18.273V115.8q-8.429,6.375-25.392,6.383-21.338,0-36.487-15.359a50.361,50.361,0,0,1-15.15-36.867V13.188a12.776,12.776,0,0,1,3.841-9.3A12.3,12.3,0,0,1,213.378,0h.319a12.292,12.292,0,0,1,9.068,3.891,12.771,12.771,0,0,1,3.841,9.3V69.953a25.251,25.251,0,0,0,7.361,18.273A24.521,24.521,0,0,0,252.1,95.789a24.275,24.275,0,0,0,17.924-7.562A25.063,25.063,0,0,0,277.5,69.953V13.188a12.772,12.772,0,0,1,3.841-9.3A12.415,12.415,0,0,1,290.513,0h.214a11.855,11.855,0,0,1,9.068,3.891,12.773,12.773,0,0,1,3.842,9.3V116.664q0,21.4-15.9,36.984Q272.27,168.988,252.1,169A54.848,54.848,0,0,1,222.979,160.992Zm343.536-48.937a12.743,12.743,0,1,1,12.743,12.906A12.835,12.835,0,0,1,566.515,112.055Zm-102.207-5.773a60.376,60.376,0,0,1-18.029-44.008,60.371,60.371,0,0,1,18.029-44Q482.338,0,507.73,0a58.855,58.855,0,0,1,33.5,10.156,60.408,60.408,0,0,1,22.3,26.164,12.511,12.511,0,0,1,.428,10.055,12.366,12.366,0,0,1-6.828,7.359q-14.937,6.809-39.262,17.953-30.193,13.828-35.42,16.32Q490.554,98.4,507.73,98.391a34.167,34.167,0,0,0,20.7-6.812,35.286,35.286,0,0,0,12.7-17.3q3.094-8.871,12.375-8.875a13.358,13.358,0,0,1,13.017,12.867,13.72,13.72,0,0,1-.853,4.648,59.493,59.493,0,0,1-22.085,29.852,58.967,58.967,0,0,1-35.847,11.781Q482.34,124.555,464.308,106.281Zm18.351-69.094A35.059,35.059,0,0,0,472.417,62.6v.758l59.639-27.141Q524.162,26.7,507.73,26.7A33.913,33.913,0,0,0,482.659,37.188Zm-67.64,87.367a12.444,12.444,0,0,1-9.176-3.891A12.2,12.2,0,0,1,402,111.477V52.336a25.237,25.237,0,0,0-7.362-18.273,25.383,25.383,0,0,0-36.167,0,25.237,25.237,0,0,0-7.362,18.273v59.141a12.2,12.2,0,0,1-3.841,9.188,12.325,12.325,0,0,1-9.069,3.891h-.32a12.324,12.324,0,0,1-9.068-3.891,12.2,12.2,0,0,1-3.841-9.187V52.336a50.736,50.736,0,0,1,15.15-36.984A49.38,49.38,0,0,1,376.61,0q21.231,0,36.381,15.352a50.738,50.738,0,0,1,15.149,36.984v59.141a12.2,12.2,0,0,1-3.841,9.188,11.881,11.881,0,0,1-9.069,3.891Zm-249.011,0a11.884,11.884,0,0,1-9.069-3.891,12.2,12.2,0,0,1-3.84-9.187V52.008a24.769,24.769,0,0,0-7.362-18.062,25.15,25.15,0,0,0-35.74,0,24.77,24.77,0,0,0-7.361,18.063v59.469a12.2,12.2,0,0,1-3.841,9.188,11.884,11.884,0,0,1-9.068,3.891h-.213a12.444,12.444,0,0,1-9.176-3.891,12.2,12.2,0,0,1-3.841-9.187V52.008a24.77,24.77,0,0,0-7.361-18.062,24.118,24.118,0,0,0-17.817-7.453A24.121,24.121,0,0,0,33.5,33.945a24.77,24.77,0,0,0-7.361,18.063v59.469a12.2,12.2,0,0,1-3.841,9.188,12.325,12.325,0,0,1-9.069,3.891h-.32a12.323,12.323,0,0,1-9.068-3.891A12.2,12.2,0,0,1,0,111.477V52.008A50.682,50.682,0,0,1,15.043,15.242,49.135,49.135,0,0,1,51.317,0q25.392,0,38.3,17.078Q102.421-.008,127.813,0a49.134,49.134,0,0,1,36.274,15.242A50.679,50.679,0,0,1,179.13,52.008v59.469a12.6,12.6,0,0,1-3.734,9.188,12.444,12.444,0,0,1-9.175,3.891Z" transform="translate(0.5 0.5)" fill="#fa3b47" stroke="rgba(0,0,0,0)" stroke-miterlimit="10" stroke-width="1"/>
</svg>
