<svg id="Livello_1" data-name="Livello 1" xmlns="http://www.w3.org/2000/svg" width="31" height="16" viewBox="0 0 31 16">
  <title>navbar-toggler-hover</title>
  <g id="Group_2465" data-name="Group 2465">
    <path id="tgp3" d="M7.87,12H23.13c.62,0,1.13.9,1.13,2h0c0,1.1-.51,2-1.13,2H7.87c-.62,0-1.13-.9-1.13-2h0C6.74,12.9,7.25,12,7.87,12Z" fill="#4e9efd"/>
    <path id="tgp2" d="M3.44,6.28H27.56c1.9,0,3.44.9,3.44,2h0c0,1.1-1.54,2-3.44,2H3.44c-1.9,0-3.44-.9-3.44-2H0C0,7.18,1.54,6.28,3.44,6.28Z" fill="#4e9efd"/>
    <path id="tgp1" d="M7.87,0H23.13c.62,0,1.13.9,1.13,2h0c0,1.1-.51,2-1.13,2H7.87c-.62,0-1.13-.9-1.13-2h0C6.74.9,7.25,0,7.87,0Z" fill="#4e9efd"/>
  </g>
</svg>
