<svg id="Livello_1" data-name="Livello 1" xmlns="http://www.w3.org/2000/svg" width="31" height="16" viewBox="0 0 31 16">
  <title>navbar-toggler</title>
  <g id="Group_2465" data-name="Group 2465">
    <path id="tgp3" d="M2,12H29a2,2,0,0,1,2,2h0a2,2,0,0,1-2,2H2a2,2,0,0,1-2-2H0A2,2,0,0,1,2,12Z" fill="#4e9efd"/>
    <path id="tgp2" d="M15,6H29a2,2,0,0,1,2,2h0a2,2,0,0,1-2,2H15a2,2,0,0,1-2-2h0A2,2,0,0,1,15,6Z" fill="#4e9efd"/>
    <path id="tgp1" d="M2,0H29a2,2,0,0,1,2,2h0a2,2,0,0,1-2,2H2A2,2,0,0,1,0,2H0A2,2,0,0,1,2,0Z" fill="#4e9efd"/>
  </g>
</svg>
