<svg xmlns="http://www.w3.org/2000/svg" width="44.785" height="57.006" viewBox="0 0 44.785 57.006">
  <path id="Subtraction_7" data-name="Subtraction 7" d="M811.148,408a6.081,6.081,0,0,1-3.778-1.334c.023-.258.046-.515.068-.773.759-8.725,1.144-17.606,1.144-26.4s-.385-17.674-1.144-26.4c-.022-.258-.045-.516-.068-.774A6.079,6.079,0,0,1,811.147,351a5.969,5.969,0,0,1,3.228.962L849.4,374.451a6,6,0,0,1,0,10.1l-35.023,22.494A5.97,5.97,0,0,1,811.148,408Z" transform="translate(-807.37 -350.997)" fill="rgba(250,59,71,0.5)"/>
</svg>
