<?xml version="1.0" standalone="no"?>
<!DOCTYPE svg PUBLIC "-//W3C//DTD SVG 20010904//EN"
 "http://www.w3.org/TR/2001/REC-SVG-20010904/DTD/svg10.dtd">
<svg version="1.0" xmlns="http://www.w3.org/2000/svg"
 width="700.000000pt" height="700.000000pt" viewBox="0 0 700.000000 700.000000"
 preserveAspectRatio="xMidYMid meet">
<metadata>
Created by potrace 1.11, written by Peter Selinger 2001-2013
</metadata>
<g transform="translate(0.000000,700.000000) scale(0.100000,-0.100000)"
fill="#000000" stroke="none">
<path d="M3278 6995 c-2 -1 -42 -5 -89 -9 -47 -4 -95 -8 -105 -10 -10 -2 -41
-7 -69 -10 -27 -4 -61 -8 -75 -11 -14 -2 -41 -6 -60 -9 -19 -3 -66 -12 -105
-21 -38 -9 -77 -18 -85 -20 -8 -2 -35 -8 -60 -15 -25 -7 -55 -14 -67 -16 -13
-3 -78 -23 -145 -45 -1071 -357 -1886 -1167 -2242 -2231 -31 -94 -79 -267 -91
-329 -3 -13 -11 -58 -20 -99 -22 -115 -30 -160 -41 -255 -26 -230 -26 -667 1
-826 2 -13 6 -46 9 -74 9 -78 23 -156 51 -285 70 -323 227 -718 399 -1004 36
-60 66 -111 66 -113 0 -2 4 -9 10 -16 5 -7 46 -64 91 -126 188 -268 410 -501
679 -716 92 -74 370 -265 386 -265 4 0 15 -6 23 -14 26 -22 260 -140 387 -194
306 -131 619 -215 954 -257 244 -31 692 -26 907 9 21 4 52 8 68 10 343 43 908
245 1207 433 21 12 40 23 43 23 3 0 11 5 18 10 7 6 64 44 127 86 102 68 236
168 315 236 112 95 308 291 380 378 21 25 40 47 44 50 12 9 136 172 193 255
236 340 432 782 524 1178 2 9 6 27 9 40 14 60 55 299 60 352 4 33 9 71 11 85
9 48 11 525 4 605 -17 172 -22 220 -25 225 -2 3 -6 30 -10 60 -4 30 -22 123
-40 205 -285 1268 -1246 2272 -2500 2613 -112 31 -299 71 -364 78 -20 2 -45 6
-56 9 -11 2 -47 7 -80 10 -33 4 -73 9 -90 11 -33 5 -541 14 -547 9z"/>
</g>
</svg>
